<svg width="260" height="260" viewBox="0 0 260 260" fill="none" xmlns="http://www.w3.org/2000/svg">
<path opacity="0.3" d="M31.9834 193.893C34.8768 184.113 49.6653 156.491 70.5558 142.935L67.9305 195.543C67.7369 197.509 67.4542 199.459 67.0878 201.371C61.2882 231.79 38.5048 250.213 21.8911 260C23.3032 244.085 28.0184 217.968 31.9834 193.893Z" fill="#1B558D"/>
<g opacity="0.6">
<path d="M38.2209 157.753C38.2197 157.76 38.2197 157.766 38.2197 157.773L38.2249 157.741C38.5079 156.183 38.7909 154.647 39.0844 153.137C45.064 122.1 61.5669 102.153 92.4974 93.2999L181.869 67.7012C174.784 85.9754 159.827 110.18 136.895 121.017C135.193 121.816 133.448 122.551 131.661 123.198L88.8738 134.148C82.3402 135.977 76.0664 139.124 70.1744 143.228C53.4221 154.901 39.7696 174.348 32.0825 193.576C33.8964 182.382 35.9406 170.311 38.2144 157.773L38.2209 157.753Z" fill="#1B558D"/>
<path d="M38.2209 157.753C38.2217 157.749 38.2229 157.745 38.2249 157.741Z" fill="#1B558D"/>
</g>
<path d="M38.2195 157.772C38.2195 157.762 38.2195 157.751 38.2248 157.741L38.2195 157.772ZM39.0842 153.137C45.0639 122.1 61.5668 102.153 92.4973 93.2998L189.329 65.5641C191.111 64.9072 192.851 64.1654 194.549 63.3442C221.413 50.3904 236.948 18.6335 242 0L56.2003 54.4222C46.2902 58.311 17.7756 66.7456 17 109.12L21.8913 260C23.4845 252.312 28.9383 208.92 38.2143 157.772L38.2248 157.741C38.5078 156.183 38.7908 154.647 39.0842 153.137Z" fill="#1B558D"/>
</svg>
