<svg width="12" height="20" viewBox="0 0 12 20" fill="none" xmlns="http://www.w3.org/2000/svg">
<path d="M11.7045 13.334C12.0987 13.7251 12.0983 14.3585 11.7045 14.7493L6.741 19.6754C6.55598 19.8747 6.29106 19.9997 5.99932 19.9997C5.70074 19.9997 5.43026 19.8688 5.24476 19.6613L0.295471 14.7493C-0.0986649 14.3582 -0.0983168 13.7248 0.295471 13.334C0.689259 12.9431 1.32747 12.9428 1.7216 13.334L4.99089 16.5786L4.99089 1.00098C4.99089 0.448693 5.44703 0.000976276 5.99932 0.0009763C6.5516 0.000976324 7.00775 0.448692 7.00775 1.00098L7.00774 16.5799L10.2784 13.334C10.4622 13.1515 10.6993 13.0544 10.9399 13.0423C11.2146 13.0281 11.4942 13.1252 11.7045 13.334Z" fill="#2D3845"/>
</svg>
