<svg width="21" height="12" viewBox="0 0 21 12" fill="none" xmlns="http://www.w3.org/2000/svg">
<path d="M7.66408 0.295472C7.27292 -0.0986646 6.63953 -0.0983164 6.24871 0.295472L1.32261 5.259C1.12332 5.44402 0.998388 5.70894 0.998388 6.00068C0.998388 6.29926 1.12925 6.56974 1.33674 6.75523L6.24871 11.7045C6.63987 12.0987 7.27327 12.0983 7.66408 11.7045C8.0549 11.3107 8.05525 10.6725 7.66408 10.2784L4.41945 7.00911L19.9971 7.00911C20.5494 7.00911 20.9971 6.55297 20.9971 6.00068C20.9971 5.4484 20.5494 4.99225 19.9971 4.99225L4.4181 4.99225L7.66408 1.7216C7.84654 1.53777 7.94364 1.30066 7.95573 1.06007C7.9699 0.785356 7.8728 0.50577 7.66408 0.295472Z" fill="#2D3845"/>
</svg>
