<svg width="13" height="20" viewBox="0 0 13 20" fill="none" xmlns="http://www.w3.org/2000/svg">
<path d="M12.7021 13.333C13.0962 13.7241 13.0959 14.3575 12.7021 14.7484L7.73856 19.6745C7.55353 19.8737 7.28862 19.9987 6.99688 19.9987C6.6983 19.9987 6.42782 19.8678 6.24232 19.6603L1.29303 14.7484C0.898894 14.3572 0.899242 13.7238 1.29303 13.333C1.68682 12.9422 2.32503 12.9418 2.71916 13.333L5.98845 16.5776L5.98845 1C5.98845 0.447717 6.44459 -2.86439e-07 6.99688 -2.62298e-07C7.54916 -2.38157e-07 8.00531 0.447715 8.00531 1L8.0053 16.579L11.276 13.333C11.4598 13.1505 11.6969 13.0534 11.9375 13.0413C12.2122 13.0272 12.4918 13.1243 12.7021 13.333Z" fill="#2D3845"/>
</svg>
