<svg width="13" height="12" viewBox="0 0 13 12" fill="none" xmlns="http://www.w3.org/2000/svg">
<path d="M1.33291 10.0461C0.886006 10.493 0.886006 11.2177 1.33291 11.6646C1.77981 12.1115 2.5045 12.1115 2.9514 11.6646L6.99749 7.61852L11.0437 11.6647C11.4906 12.1116 12.2153 12.1116 12.6622 11.6647C13.1091 11.2178 13.1091 10.4931 12.6622 10.0462L8.61598 6.00003L12.6623 1.95367C13.1092 1.50676 13.1092 0.782079 12.6623 0.335177C12.2154 -0.111726 11.4908 -0.111726 11.0438 0.335177L6.99749 4.38154L2.95123 0.335269C2.50432 -0.111633 1.77964 -0.111633 1.33274 0.335269C0.885833 0.782172 0.885833 1.50686 1.33274 1.95376L5.379 6.00003L1.33291 10.0461Z" fill="#2D3845"/>
</svg>
