<svg width="13" height="20" viewBox="0 0 13 20" fill="none" xmlns="http://www.w3.org/2000/svg">
<path d="M12.7021 6.66555C13.0962 6.27439 13.0959 5.64099 12.7021 5.25017L7.73856 0.324072C7.55353 0.124787 7.28862 -0.000146616 6.99688 -0.000146604C6.6983 -0.00014659 6.42782 0.130711 6.24232 0.338202L1.29303 5.25017C0.898894 5.64134 0.899242 6.27473 1.29303 6.66555C1.68682 7.05637 2.32503 7.05671 2.71916 6.66555L5.98845 3.42092L5.98845 18.9985C5.98845 19.5508 6.44459 19.9985 6.99688 19.9985C7.54916 19.9985 8.00531 19.5508 8.00531 18.9985L8.0053 3.41956L11.276 6.66555C11.4598 6.848 11.6969 6.9451 11.9375 6.9572C12.2122 6.97136 12.4918 6.87426 12.7021 6.66555Z" fill="#2D3845"/>
</svg>
