<svg width="17" height="16" viewBox="0 0 17 16" fill="none" xmlns="http://www.w3.org/2000/svg">
<path d="M6.99756 9C7.54984 9 7.99756 9.44772 7.99756 10V15C7.99756 15.5523 8.44527 16 8.99756 16V16C9.54984 16 9.99756 15.5523 9.99756 15V10C9.99756 9.44772 10.4453 9 10.9976 9H15.9976C16.5498 9 16.9976 8.55228 16.9976 8V8C16.9976 7.44772 16.5498 7 15.9976 7H10.9976C10.4453 7 9.99756 6.55228 9.99756 6V1C9.99756 0.447715 9.54984 0 8.99756 0V0C8.44527 0 7.99756 0.447715 7.99756 1V6C7.99756 6.55228 7.54984 7 6.99756 7H1.99756C1.44527 7 0.997559 7.44772 0.997559 8V8C0.997559 8.55228 1.44527 9 1.99756 9H6.99756Z" fill="#2D3845"/>
</svg>
