<svg width="20" height="12" viewBox="0 0 20 12" fill="none" xmlns="http://www.w3.org/2000/svg">
<path d="M13.333 0.295472C13.7241 -0.0986646 14.3575 -0.0983164 14.7484 0.295472L19.6745 5.259C19.8737 5.44402 19.9987 5.70894 19.9987 6.00068C19.9987 6.29926 19.8678 6.56974 19.6603 6.75523L14.7484 11.7045C14.3572 12.0987 13.7238 12.0983 13.333 11.7045C12.9422 11.3107 12.9418 10.6725 13.333 10.2784L16.5776 7.00911L1 7.00911C0.447717 7.00911 0 6.55297 0 6.00068C0 5.4484 0.447715 4.99225 1 4.99225L16.579 4.99225L13.333 1.7216C13.1505 1.53777 13.0534 1.30066 13.0413 1.06007C13.0272 0.785356 13.1243 0.50577 13.333 0.295472Z" fill="#2D3845"/>
</svg>
