<svg width="366" height="20" viewBox="0 0 366 20" fill="none" xmlns="http://www.w3.org/2000/svg">
<g clip-path="url(#clip0_1404_1862)">
<path d="M13.333 0.295472C13.7241 -0.0986646 14.3575 -0.0983164 14.7484 0.295472L19.6745 5.259C19.8737 5.44402 19.9987 5.70894 19.9987 6.00068C19.9987 6.29926 19.8678 6.56974 19.6603 6.75523L14.7484 11.7045C14.3572 12.0987 13.7238 12.0983 13.333 11.7045C12.9422 11.3107 12.9418 10.6725 13.333 10.2784L16.5776 7.00911L1 7.00911C0.447717 7.00911 0 6.55297 0 6.00068C0 5.4484 0.447715 4.99225 1 4.99225L16.579 4.99225L13.333 1.7216C13.1505 1.53777 13.0534 1.30066 13.0413 1.06007C13.0272 0.785356 13.1243 0.50577 13.333 0.295472Z" fill="#2D3845"/>
<path d="M46.6641 0.295472C46.2729 -0.0986646 45.6395 -0.0983164 45.2487 0.295472L40.3226 5.259C40.1233 5.44402 39.9984 5.70894 39.9984 6.00068C39.9984 6.29926 40.1292 6.56974 40.3367 6.75523L45.2487 11.7045C45.6399 12.0987 46.2733 12.0983 46.6641 11.7045C47.0549 11.3107 47.0552 10.6725 46.6641 10.2784L43.4195 7.00911L58.9971 7.00911C59.5494 7.00911 59.9971 6.55297 59.9971 6.00068C59.9971 5.4484 59.5494 4.99225 58.9971 4.99225L43.4181 4.99225L46.6641 1.7216C46.8465 1.53777 46.9436 1.30066 46.9557 1.06007C46.9699 0.785356 46.8728 0.50577 46.6641 0.295472Z" fill="#2D3845"/>
<path d="M91.7021 13.333C92.0962 13.7241 92.0959 14.3575 91.7021 14.7484L86.7386 19.6745C86.5535 19.8737 86.2886 19.9987 85.9969 19.9987C85.6983 19.9987 85.4278 19.8678 85.2423 19.6603L80.293 14.7484C79.8989 14.3572 79.8992 13.7238 80.293 13.333C80.6868 12.9422 81.325 12.9418 81.7192 13.333L84.9884 16.5776L84.9885 1C84.9885 0.447717 85.4446 -2.86439e-07 85.9969 -2.62298e-07C86.5492 -2.38157e-07 87.0053 0.447715 87.0053 1L87.0053 16.579L90.276 13.333C90.4598 13.1505 90.6969 13.0534 90.9375 13.0413C91.2122 13.0272 91.4918 13.1243 91.7021 13.333Z" fill="#2D3845"/>
<path d="M123.702 6.66555C124.096 6.27439 124.096 5.64099 123.702 5.25017L118.739 0.324072C118.554 0.124787 118.289 -0.000146616 117.997 -0.000146604C117.698 -0.00014659 117.428 0.130711 117.242 0.338202L112.293 5.25017C111.899 5.64134 111.899 6.27473 112.293 6.66555C112.687 7.05637 113.325 7.05671 113.719 6.66555L116.988 3.42092L116.988 18.9985C116.988 19.5508 117.445 19.9985 117.997 19.9985C118.549 19.9985 119.005 19.5508 119.005 18.9985L119.005 3.41956L122.276 6.66555C122.46 6.848 122.697 6.9451 122.937 6.9572C123.212 6.97136 123.492 6.87426 123.702 6.66555Z" fill="#2D3845"/>
<path d="M155.745 3.54083C156.082 3.20077 156.082 2.64943 155.745 2.30937L155.692 2.25504C155.355 1.91499 154.81 1.91499 154.473 2.25504L149.994 6.78259L145.522 2.26169C145.185 1.92163 144.64 1.92163 144.304 2.26169L144.25 2.31602C143.913 2.65607 143.913 3.20742 144.25 3.54747L149.392 8.74496C149.728 9.08501 150.273 9.08501 150.61 8.74496L150.664 8.69063C150.694 8.66008 150.721 8.62782 150.746 8.59417L155.745 3.54083Z" fill="#2D3845"/>
<path d="M176.25 5.45917C175.913 5.79923 175.913 6.35057 176.25 6.69063L176.304 6.74496C176.64 7.08501 177.185 7.08501 177.522 6.74496L182.001 2.21741L186.473 6.73831C186.81 7.07837 187.355 7.07837 187.692 6.73831L187.745 6.68398C188.082 6.34393 188.082 5.79258 187.745 5.45253L182.604 0.255043C182.267 -0.0850142 181.722 -0.0850142 181.385 0.255044L181.332 0.309374C181.301 0.339924 181.274 0.372178 181.249 0.405831L176.25 5.45917Z" fill="#2D3845"/>
<path d="M213.998 9C214.55 9 214.998 9.44772 214.998 10V15C214.998 15.5523 215.445 16 215.998 16V16C216.55 16 216.998 15.5523 216.998 15V10C216.998 9.44772 217.445 9 217.998 9H222.998C223.55 9 223.998 8.55228 223.998 8V8C223.998 7.44772 223.55 7 222.998 7H217.998C217.445 7 216.998 6.55228 216.998 6V1C216.998 0.447715 216.55 0 215.998 0V0C215.445 0 214.998 0.447715 214.998 1V6C214.998 6.55228 214.55 7 213.998 7H208.998C208.445 7 207.998 7.44772 207.998 8V8C207.998 8.55228 208.445 9 208.998 9H213.998Z" fill="#2D3845"/>
<path d="M243.998 1C243.998 0.447754 244.445 0 244.998 0H266.998C267.55 0 267.998 0.447754 267.998 1C267.998 1.55225 267.55 2 266.998 2H244.998C244.445 2 243.998 1.55225 243.998 1Z" fill="#2D3845"/>
<path d="M243.998 9C243.998 8.44775 244.445 8 244.998 8H266.998C267.55 8 267.998 8.44775 267.998 9C267.998 9.55225 267.55 10 266.998 10H244.998C244.445 10 243.998 9.55225 243.998 9Z" fill="#2D3845"/>
<path d="M288.333 10.0461C287.886 10.493 287.886 11.2177 288.333 11.6646C288.78 12.1115 289.504 12.1115 289.951 11.6646L293.997 7.61852L298.044 11.6647C298.491 12.1116 299.215 12.1116 299.662 11.6647C300.109 11.2178 300.109 10.4931 299.662 10.0462L295.616 6.00003L299.662 1.95367C300.109 1.50676 300.109 0.782079 299.662 0.335177C299.215 -0.111726 298.491 -0.111726 298.044 0.335177L293.997 4.38154L289.951 0.335269C289.504 -0.111633 288.78 -0.111633 288.333 0.335269C287.886 0.782172 287.886 1.50686 288.333 1.95376L292.379 6.00003L288.333 10.0461Z" fill="#2D3845"/>
<path d="M324.994 1C324.994 0.447754 325.441 0 325.994 0H332.994C333.546 0 333.994 0.447754 333.994 1V8C333.994 8.55225 333.546 9 332.994 9C332.441 9 331.994 8.55225 331.994 8V3.41406L321.705 13.7031C321.314 14.0936 320.681 14.0936 320.291 13.7031C319.9 13.3125 319.9 12.6794 320.291 12.2888L330.579 2H325.994C325.441 2 324.994 1.55225 324.994 1Z" fill="#379BAD"/>
<path d="M355.715 3.78361C355.321 3.37559 354.683 3.37559 354.289 3.78361C353.895 4.19164 353.895 4.85318 354.289 5.2612L357.567 8.69398C357.961 9.10201 358.6 9.10201 358.994 8.69398L365.698 1.78361C366.092 1.37559 366.092 0.714045 365.698 0.306019C365.304 -0.102007 364.666 -0.102006 364.272 0.30602L358.994 5.7388C358.6 6.14682 357.961 6.14682 357.567 5.7388L355.715 3.78361Z" fill="#2D3845"/>
</g>
<defs>
<clipPath id="clip0_1404_1862">
<rect width="366" height="20" fill="white"/>
</clipPath>
</defs>
</svg>
