<svg width="12" height="12" viewBox="0 0 12 12" fill="none" xmlns="http://www.w3.org/2000/svg">
<path d="M11.0371 7.8766C10.3024 7.8766 9.58104 7.7617 8.89745 7.53579C8.56248 7.42154 8.1507 7.52636 7.94626 7.73632L6.59698 8.75488C5.03221 7.9196 4.06833 6.95604 3.24446 5.40302L4.23305 4.0889C4.48989 3.8324 4.58202 3.45771 4.47164 3.10615C4.24477 2.41896 4.12952 1.69793 4.12952 0.962935C4.12955 0.431968 3.69758 0 3.16665 0L0.962904 0C0.431968 0 0 0.431968 0 0.962904C0 7.04883 4.95117 12 11.0371 12C11.568 12 12 11.568 12 11.0371V8.83948C12 8.30857 11.568 7.8766 11.0371 7.8766Z" fill="white"/>
</svg>
