<svg width="18" height="18" viewBox="0 0 18 18" fill="none" xmlns="http://www.w3.org/2000/svg">
<path d="M17.6601 0.247447C17.3531 -0.0387535 16.8708 -0.0797036 16.3722 0.140347H16.3713C15.8469 0.371648 1.52653 7.12347 0.943561 7.39932C0.837529 7.43982 -0.088506 7.81962 0.00688135 8.66562C0.092034 9.42837 0.836301 9.74428 0.927185 9.78073L4.56787 11.151C4.80941 12.0348 5.69983 15.2955 5.89674 15.9921C6.01956 16.4263 6.21975 16.9969 6.5706 17.1144C6.87846 17.2449 7.18468 17.1256 7.38282 16.9546L9.60866 14.6853L13.2019 17.7655L13.2874 17.8218C13.5314 17.9406 13.7652 18 13.9883 18C14.1606 18 14.326 17.9645 14.4841 17.8934C15.0224 17.6503 15.2377 17.0865 15.2603 17.0226L17.9442 1.6879C18.108 0.868899 17.8803 0.452198 17.6601 0.247447ZM7.7787 11.6991L6.55054 15.2991L5.32237 10.7991L14.7383 3.14906L7.7787 11.6991Z" fill="#8B95A0"/>
</svg>
