<svg width="18" height="20" viewBox="0 0 18 20" fill="none" xmlns="http://www.w3.org/2000/svg">
<path d="M17.4784 4.41604C17.1436 3.20342 16.4806 2.24556 15.5096 1.56792C14.2842 0.710262 12.8746 0.407958 11.6576 0.222839C9.97342 -0.0319125 8.44832 -0.0675775 6.99353 0.112447C5.63082 0.282281 4.6046 0.552316 3.66878 0.98879C1.83397 1.84475 0.732416 3.2289 0.395923 5.10217C0.231862 6.01248 0.121371 6.83447 0.0577561 7.61911C-0.0895642 9.43293 0.0443633 11.0379 0.466235 12.5256C0.878062 13.976 1.59625 15.012 2.66265 15.693C2.93385 15.8662 3.28206 15.9919 3.61855 16.1125C3.8094 16.1804 3.99523 16.2467 4.14757 16.3197C4.28819 16.3859 4.28819 16.3978 4.28652 16.5167C4.2748 17.5476 4.28652 19.5686 4.28652 19.5686L4.28987 20H5.05325L5.17714 19.8777C5.25917 19.7996 7.15089 17.945 7.82555 17.1977L7.91763 17.0941C8.03314 16.9583 8.03314 16.9583 8.152 16.9566C9.06271 16.9379 9.99351 16.9022 10.9176 16.8513C12.0376 16.7901 13.335 16.6797 14.5571 16.1635C15.6754 15.6896 16.4923 14.9373 16.9828 13.9284C17.4951 12.8755 17.7981 11.7359 17.912 10.4434C18.1129 8.17107 17.9706 6.19929 17.4784 4.41604ZM13.4505 13.2525C13.1693 13.7161 12.7507 14.0388 12.2569 14.2477C11.8953 14.4006 11.527 14.3683 11.1704 14.2155C8.18548 12.9332 5.84343 10.9139 4.29656 8.00972C3.97681 7.41191 3.75583 6.75975 3.50137 6.12796C3.44947 5.99889 3.45282 5.84604 3.42938 5.70338C3.45114 4.68268 4.2229 4.10694 5.00303 3.93371C5.30102 3.86578 5.56553 3.97277 5.78651 4.18846C6.39923 4.77948 6.88304 5.46731 7.24799 6.23836C7.40703 6.57633 7.33504 6.87523 7.06384 7.12659C7.00692 7.17924 6.94833 7.22679 6.88639 7.27434C6.26697 7.74648 6.17657 8.10483 6.50637 8.81643C7.06886 10.0274 8.00301 10.8409 9.21003 11.3453C9.52811 11.4777 9.82777 11.4115 10.0705 11.15C10.104 11.116 10.1408 11.082 10.1643 11.0413C10.6397 10.2362 11.3311 10.3161 11.9689 10.7746C12.3875 11.0769 12.7943 11.3962 13.2078 11.7036C13.8389 12.1741 13.8339 12.6156 13.4505 13.2525ZM9.49128 5.21765C9.35065 5.21765 9.21003 5.22954 9.07108 5.25332C8.83671 5.29238 8.6174 5.13274 8.57722 4.89497C8.53872 4.6589 8.69608 4.43472 8.93046 4.39566C9.11461 4.36339 9.30378 4.3481 9.49128 4.3481C11.3478 4.3481 12.8579 5.88001 12.8579 7.76346C12.8579 7.95538 12.8428 8.14729 12.811 8.33241C12.7759 8.5447 12.595 8.69585 12.3891 8.69585C12.3657 8.69585 12.3423 8.69415 12.3171 8.68906C12.0844 8.65 11.9271 8.42582 11.9656 8.18975C11.989 8.05048 12.0007 7.90782 12.0007 7.76346C12.0007 6.36064 10.8741 5.21765 9.49128 5.21765ZM11.5722 7.8263C11.5722 8.06577 11.3797 8.26108 11.1436 8.26108C10.9076 8.26108 10.715 8.06577 10.715 7.8263C10.715 7.10791 10.1375 6.52198 9.42934 6.52198C9.19329 6.52198 9.00077 6.32667 9.00077 6.0872C9.00077 5.84774 9.19329 5.65243 9.42934 5.65243C10.6112 5.65243 11.5722 6.62728 11.5722 7.8263ZM14.0197 8.79266C13.9745 8.99476 13.797 9.13063 13.6012 9.13063C13.5694 9.13063 13.5376 9.12723 13.5058 9.12044C13.2747 9.06609 13.1308 8.83342 13.1827 8.59905C13.2446 8.32222 13.2764 8.0352 13.2764 7.74648C13.2764 5.63375 11.5805 3.91333 9.49797 3.91333C9.21338 3.91333 8.93046 3.9456 8.65758 4.00844C8.42655 4.06278 8.1972 3.91503 8.14531 3.68066C8.09173 3.44629 8.23738 3.21361 8.46841 3.16097C8.80322 3.08284 9.14976 3.04378 9.49797 3.04378C12.0543 3.04378 14.1335 5.15312 14.1335 7.74648C14.1335 8.09974 14.095 8.45129 14.0197 8.79266Z" fill="#8B95A0"/>
</svg>
