<svg width="20" height="20" viewBox="0 0 20 20" fill="none" xmlns="http://www.w3.org/2000/svg">
<path d="M17.0747 2.92916C14.9902 0.845102 12.1469 -0.206431 9.1614 0.0336905C5.1477 0.355854 1.62959 3.14527 0.452207 6.99322C-0.388777 9.74261 -0.0353638 12.6131 1.33424 14.9843L0.0367206 19.2894C-0.0874247 19.7027 0.290017 20.0919 0.707506 19.9808L5.21678 18.7732C6.67749 19.5696 8.32142 19.9888 9.99538 19.9898H9.99938C14.1993 19.9898 18.0798 17.4225 19.4224 13.4455C20.7299 9.56752 19.7628 5.61852 17.0747 2.92916ZM14.8931 13.5605C14.6849 14.1438 13.6647 14.7061 13.2061 14.7471C12.7476 14.7892 12.3181 14.9543 10.2076 14.1228C7.66765 13.1223 6.06378 10.52 5.93963 10.3539C5.81448 10.1868 4.91944 9.00023 4.91944 7.77161C4.91944 6.54299 5.56519 5.93868 5.79446 5.68956C6.02373 5.43943 6.29405 5.3774 6.46124 5.3774C6.62744 5.3774 6.79463 5.3774 6.9398 5.3834C7.11801 5.39041 7.31524 5.39941 7.50246 5.81462C7.72472 6.30887 8.21029 7.5435 8.27236 7.66856C8.33443 7.79362 8.37648 7.9397 8.29339 8.10578C8.21029 8.27187 8.16824 8.37592 8.04409 8.52199C7.91895 8.66807 7.78179 8.84716 7.66966 8.95921C7.54451 9.08328 7.41436 9.21935 7.55953 9.46847C7.7057 9.7186 8.20628 10.536 8.94915 11.1973C9.90427 12.0478 10.7082 12.3109 10.9585 12.437C11.2088 12.562 11.354 12.541 11.5001 12.3739C11.6463 12.2079 12.1249 11.6456 12.2911 11.3954C12.4573 11.1453 12.6245 11.1873 12.8537 11.2704C13.083 11.3534 14.3114 11.9577 14.5607 12.0828C14.811 12.2079 14.9772 12.2699 15.0393 12.3739C15.1014 12.477 15.1014 12.9773 14.8931 13.5605Z" fill="#8B95A0"/>
</svg>
