<svg width="110" height="120" viewBox="0 0 110 120" fill="none" xmlns="http://www.w3.org/2000/svg">
<path d="M59.1903 71H66V31H56.0955C46.1349 31 40.9007 36.2367 40.9007 43.9498C40.9007 50.1076 43.771 53.7332 48.8916 57.4749L40 71H47.3723L57.2768 55.8637L53.8439 53.5036C49.68 50.6255 47.6542 48.3802 47.6542 43.5466C47.6542 39.287 50.5807 36.4103 56.1516 36.4103H59.1903V71Z" fill="#2D3845"/>
<path fill-rule="evenodd" clip-rule="evenodd" d="M0 12.1858C0 5.45575 5.32418 0 11.8919 0H98.1081C104.676 0 110 5.45574 110 12.1857V82.5125C110 86.881 107.718 90.9153 104.019 93.0865L60.9106 118.388C57.2492 120.537 52.7508 120.537 49.0894 118.388L5.98133 93.0865C2.28204 90.9153 0 86.881 0 82.5125V12.1858ZM7.92793 14.2167C7.92793 10.8517 10.59 8.12383 13.8739 8.12383H96.1261C99.41 8.12383 102.072 10.8517 102.072 14.2167V81.4832C102.072 83.6647 100.934 85.6798 99.0878 86.7664L57.9617 110.975C56.1278 112.054 53.8722 112.054 52.0383 110.975L10.9122 86.7664C9.06613 85.6798 7.92793 83.6647 7.92793 81.4832V14.2167Z" fill="#2D3845"/>
</svg>
