<svg width="113" height="55" viewBox="0 0 113 55" fill="none" xmlns="http://www.w3.org/2000/svg">
<path opacity="0.3" d="M3.06332 39.5245C3.65486 37.5308 6.67828 31.9002 10.9492 29.1367L10.4125 39.8608C10.3729 40.2616 10.3151 40.659 10.2402 41.0487C9.05451 47.2496 4.39658 51.005 1 53C1.2887 49.7559 2.25269 44.4321 3.06332 39.5245Z" fill="#1B558D"/>
<g opacity="0.6">
<path d="M4.33847 32.1573C4.33821 32.1586 4.33821 32.16 4.33821 32.1613L4.33929 32.1548C4.39714 31.8373 4.455 31.5241 4.515 31.2163C5.7375 24.8897 9.11143 20.8235 15.435 19.0188L33.7066 13.8006C32.258 17.5257 29.2002 22.4598 24.5119 24.6688C24.1639 24.8316 23.8071 24.9816 23.4418 25.1133L14.6942 27.3455C13.3584 27.7183 12.0758 28.3599 10.8712 29.1964C7.44626 31.5758 4.65509 35.5401 3.08351 39.4598C3.45436 37.1779 3.87227 34.7171 4.33714 32.1613L4.33847 32.1573Z" fill="#1B558D"/>
<path d="M4.33847 32.1573C4.33862 32.1565 4.33888 32.1557 4.33929 32.1548L4.33847 32.1573Z" fill="#1B558D"/>
</g>
<path d="M4.33821 32.1613C4.33821 32.1592 4.33821 32.157 4.33929 32.1548L4.33821 32.1613ZM4.515 31.2163C5.7375 24.8897 9.11143 20.8235 15.435 19.0188L35.2318 13.365C35.5961 13.2311 35.9518 13.0799 36.2989 12.9125C41.7911 10.2719 44.9671 3.79836 46 0L8.01429 11.0938C5.98821 11.8865 0.158571 13.6058 0 22.2437L1 53C1.32571 51.4329 2.44071 42.5876 4.33714 32.1613L4.33929 32.1548C4.39714 31.8373 4.455 31.5241 4.515 31.2163Z" fill="#1B558D"/>
<path d="M109 47.5C107 53 103 55 100 55C100 54.5383 100 53.2568 100 52.5C100 50.7891 101.779 50.6337 102.825 50C103.87 49.3663 104 48.5 104 48.5C104 48.5 101.535 41.1429 100.067 37C100.067 37 99 34 101 34C101.5 34 103 34 103 34L106.5 44L109 34H113C113 34 111 42 109 47.5ZM94 27C94 27 94 25 96 25C96.5 25 98 25 98 25C98 25 98 44 98 46C98 48 96 48 96 48H94V27ZM89 31H87V29C87 29 87 27 89 27C89.5 27 91 27 91 27C91 27 91 28 91 29C91 31 89 31 89 31ZM80 39C80 38 79.5 37 78 37C76.5 37 76 38 76 39C76 39 76 44 76 46C76 48 74 48 74 48H72.0868L72 39C72 38 71.5 37 70 37C68.5 37 68 38 68 39C68 39 68 44 68 46C68 48 66 48 66 48H64.0035V36C64.0035 36 64.0035 34 66 34C66.5 34 68 34 68 34V35.0226C68.5 34.5 69.1796 34 70 34C73.1444 34 74 35 74 36C74 35.0226 76 34 78 34C81 34 84 34.5 84 39C84 39 84 44 84 46C84 48 82 48 82 48H80V39ZM57 46.5C56 47.5 55.0698 48 53 48C49.5 48 47 45.0422 47 41.034C47 37.0247 49.5 34 53 34C55 34 56 34.5 57 35.5V34H61C61 34 61 44 61 46C61 48 59 48 59 48H57V46.5ZM54 38C52.5 38 51 39 51 41C51 43 52.5 44 54 44C55.5 44 57 43 57 41C57 39 55.5 38 54 38ZM39 35.0226H45C45 35.0226 45 35 45 37C45 39 43 39 43 39H39C39 39 39 44 39 46C39 48 37 48 37 48H35L35 29C35 29 35 27 37 27C39 27 47 27 47 27C47 27 47 27 47 29C47 31 45 31 45 31H39V35.0226ZM89 48H86.9979L87 34H91C91 34 91 44 91 46C91 48 89 48 89 48Z" fill="#2D3845"/>
</svg>
