<svg width="100" height="100" viewBox="0 0 100 100" fill="none" xmlns="http://www.w3.org/2000/svg">
<rect width="100" height="100" rx="12" fill="#16A6FB"/>
<path d="M50 30C38.9545 30 30 39.0006 30 50.1028C30 60.1816 37.3864 68.5033 47.0109 69.9571V55.431H42.0627V50.1467H47.0109V46.6305C47.0109 40.8089 49.8327 38.2531 54.6464 38.2531C56.9518 38.2531 58.1709 38.4249 58.7482 38.5035V43.1162H55.4645C53.4209 43.1162 52.7073 45.0634 52.7073 47.2583V50.1467H58.6964L57.8836 55.431H52.7073V70C62.4691 68.6686 70 60.2794 70 50.1028C70 39.0006 61.0455 30 50 30Z" fill="white"/>
</svg>
