<svg width="100" height="100" viewBox="0 0 100 100" fill="none" xmlns="http://www.w3.org/2000/svg">
<rect width="100" height="100" rx="12" fill="#2D3845"/>
<path d="M50.4109 30C55.7041 30 60.5246 31.9748 64.1532 35.2148L59.3211 39.9479C56.9321 37.9096 53.8202 36.6666 50.4042 36.6666C44.7667 36.6666 39.9297 40.0289 37.8667 44.819L32.3257 40.7207C32.3257 40.7207 37.8667 30 50.4109 30Z" fill="#EA4335"/>
<path d="M58.5898 60.6416L64.182 64.9087C69.511 59.6853 70.6815 51.6403 69.6694 46.667H50.4042V53.3336H63.562C62.7838 56.2903 61.0006 58.8515 58.5898 60.6416Z" fill="#4285F4"/>
<path d="M37.8073 55.041L32.2378 59.1137C35.6207 65.5769 42.4892 70.0001 50.4109 70.0001C56.6413 70.0001 61.1049 67.9247 64.182 64.9085L58.5898 60.6414C56.3145 62.3308 53.4803 63.3334 50.4042 63.3334C44.7119 63.3334 39.8358 59.9055 37.8073 55.041Z" fill="#34A853"/>
<path d="M37.8668 44.8192L32.3257 40.7207C30.8404 43.4942 30 46.6512 30 50.0004C30 53.283 30.8072 56.3809 32.2378 59.114L37.8073 55.0413C37.1588 53.4862 36.8014 51.7842 36.8014 50.0004C36.8014 48.1629 37.1807 46.4121 37.8668 44.8192Z" fill="#FBBC05"/>
</svg>
