<svg width="100" height="100" viewBox="0 0 100 100" fill="none" xmlns="http://www.w3.org/2000/svg">
<rect width="100" height="100" rx="12" fill="#2D3845"/>
<path d="M41.1111 30C34.9844 30 30 34.9844 30 41.1111V58.8889C30 65.0156 34.9844 70 41.1111 70H58.8889C65.0156 70 70 65.0156 70 58.8889V41.1111C70 34.9844 65.0156 30 58.8889 30H41.1111ZM41.1111 34.4444H58.8889C62.5644 34.4444 65.5556 37.4356 65.5556 41.1111V58.8889C65.5556 62.5644 62.5644 65.5556 58.8889 65.5556H41.1111C37.4356 65.5556 34.4444 62.5644 34.4444 58.8889V41.1111C34.4444 37.4356 37.4356 34.4444 41.1111 34.4444ZM61.1111 36.6667C60.5217 36.6667 59.9565 36.9008 59.5398 37.3175C59.123 37.7343 58.8889 38.2995 58.8889 38.8889C58.8889 39.4783 59.123 40.0435 59.5398 40.4602C59.9565 40.877 60.5217 41.1111 61.1111 41.1111C61.7005 41.1111 62.2657 40.877 62.6825 40.4602C63.0992 40.0435 63.3333 39.4783 63.3333 38.8889C63.3333 38.2995 63.0992 37.7343 62.6825 37.3175C62.2657 36.9008 61.7005 36.6667 61.1111 36.6667ZM50 38.8889C43.8733 38.8889 38.8889 43.8733 38.8889 50C38.8889 56.1267 43.8733 61.1111 50 61.1111C56.1267 61.1111 61.1111 56.1267 61.1111 50C61.1111 43.8733 56.1267 38.8889 50 38.8889ZM50 43.3333C53.6756 43.3333 56.6667 46.3244 56.6667 50C56.6667 53.6756 53.6756 56.6667 50 56.6667C46.3244 56.6667 43.3333 53.6756 43.3333 50C43.3333 46.3244 46.3244 43.3333 50 43.3333Z" fill="white"/>
</svg>
