<svg width="100" height="100" viewBox="0 0 100 100" fill="none" xmlns="http://www.w3.org/2000/svg">
<rect width="100" height="100" rx="12" fill="#0077FF"/>
<path d="M51.7864 62C38.1199 62 30.3248 52.991 30 38H36.8457C37.0706 49.003 42.1174 53.6637 46.1149 54.6246V38H52.5609V47.4895C56.5084 47.0811 60.6558 42.7568 62.055 38H68.5009C67.9737 40.467 66.9228 42.8028 65.4138 44.8614C63.9049 46.92 61.9704 48.6571 59.7314 49.964C62.2307 51.1581 64.4382 52.8483 66.2082 54.923C67.9782 56.9977 69.2706 59.4098 70 62H62.9044C62.2497 59.7502 60.9189 57.7362 59.0789 56.2106C57.2389 54.6849 54.9715 53.7153 52.5609 53.4234V62H51.7864V62Z" fill="white"/>
</svg>
