<svg width="113" height="55" viewBox="0 0 113 55" fill="none" xmlns="http://www.w3.org/2000/svg">
<path opacity="0.3" d="M3.06332 39.5235C3.65486 37.5298 6.67828 31.8992 10.9492 29.1357L10.4125 39.8598C10.3729 40.2606 10.3151 40.6581 10.2402 41.0477C9.05451 47.2486 4.39658 51.004 1 52.999C1.2887 49.7549 2.25269 44.4311 3.06332 39.5235Z" fill="#1B558D"/>
<g opacity="0.6">
<path d="M4.33845 32.1565C4.3382 32.1579 4.3382 32.1592 4.3382 32.1605L4.33927 32.1541C4.39713 31.8365 4.45499 31.5233 4.51499 31.2155C5.73749 24.8889 9.11141 20.8227 15.435 19.018L33.7065 13.7998C32.258 17.5249 29.2001 22.459 24.5119 24.668C24.1638 24.8308 23.8071 24.9808 23.4417 25.1125L14.6942 27.3448C13.3584 27.7175 12.0757 28.3591 10.8712 29.1957C7.44625 31.5751 4.65508 35.5393 3.0835 39.459C3.45434 37.1771 3.87226 34.7163 4.33713 32.1605L4.33845 32.1565Z" fill="#1B558D"/>
<path d="M4.33845 32.1565C4.33861 32.1557 4.33886 32.1549 4.33927 32.1541L4.33845 32.1565Z" fill="#1B558D"/>
</g>
<path d="M4.33821 32.1603C4.33821 32.1582 4.33821 32.156 4.33929 32.1539L4.33821 32.1603ZM4.515 31.2153C5.7375 24.8887 9.11143 20.8225 15.435 19.0178L35.2318 13.364C35.5961 13.2301 35.9518 13.0789 36.2989 12.9115C41.7911 10.2709 44.9671 3.79738 46 -0.000976562L8.01429 11.0928C5.98821 11.8855 0.158571 13.6049 0 22.2427L1 52.999C1.32571 51.4319 2.44071 42.5867 4.33714 32.1603L4.33929 32.1539C4.39714 31.8363 4.455 31.5231 4.515 31.2153Z" fill="#1B558D"/>
<path d="M109 47.499C107 52.999 103 54.999 100 54.999C100 54.5373 100 53.2558 100 52.499C100 50.7881 101.779 50.6327 102.825 49.999C103.87 49.3653 104 48.499 104 48.499C104 48.499 101.535 41.1419 100.067 36.999C100.067 36.999 99 33.999 101 33.999C101.5 33.999 103 33.999 103 33.999L106.5 43.999L109 33.999H113C113 33.999 111 41.999 109 47.499ZM94 26.999C94 26.999 94 24.999 96 24.999C96.5 24.999 98 24.999 98 24.999C98 24.999 98 43.999 98 45.999C98 47.999 96 47.999 96 47.999H94V26.999ZM89 30.999H87V28.999C87 28.999 87 26.999 89 26.999C89.5 26.999 91 26.999 91 26.999C91 26.999 91 27.999 91 28.999C91 30.999 89 30.999 89 30.999ZM80 38.999C80 37.999 79.5 36.999 78 36.999C76.5 36.999 76 37.999 76 38.999C76 38.999 76 43.999 76 45.999C76 47.999 74 47.999 74 47.999H72.0868L72 38.999C72 37.999 71.5 36.999 70 36.999C68.5 36.999 68 37.999 68 38.999C68 38.999 68 43.999 68 45.999C68 47.999 66 47.999 66 47.999H64.0035V35.999C64.0035 35.999 64.0035 33.999 66 33.999C66.5 33.999 68 33.999 68 33.999V35.0217C68.5 34.499 69.1796 33.999 70 33.999C73.1444 33.999 74 34.999 74 35.999C74 35.0217 76 33.999 78 33.999C81 33.999 84 34.499 84 38.999C84 38.999 84 43.999 84 45.999C84 47.999 82 47.999 82 47.999H80V38.999ZM57 46.499C56 47.499 55.0698 47.999 53 47.999C49.5 47.999 47 45.0413 47 41.033C47 37.0237 49.5 33.999 53 33.999C55 33.999 56 34.499 57 35.499V33.999H61C61 33.999 61 43.999 61 45.999C61 47.999 59 47.999 59 47.999H57V46.499ZM54 37.999C52.5 37.999 51 38.999 51 40.999C51 42.999 52.5 43.999 54 43.999C55.5 43.999 57 42.999 57 40.999C57 38.999 55.5 37.999 54 37.999ZM39 35.0217H45C45 35.0217 45 34.999 45 36.999C45 38.999 43 38.999 43 38.999H39C39 38.999 39 43.999 39 45.999C39 47.999 37 47.999 37 47.999H35L35 28.999C35 28.999 35 26.999 37 26.999C39 26.999 47 26.999 47 26.999C47 26.999 47 26.999 47 28.999C47 30.999 45 30.999 45 30.999H39V35.0217ZM89 47.999H86.9979L87 33.999H91C91 33.999 91 43.999 91 45.999C91 47.999 89 47.999 89 47.999Z" fill="#2D3845"/>
</svg>
