<svg width="80" height="91" viewBox="0 0 80 91" fill="none" xmlns="http://www.w3.org/2000/svg">
<path d="M5.32764 67.1201C6.3564 63.7345 11.6145 54.1731 19.0422 49.4805L18.1088 67.6912C18.04 68.3718 17.9395 69.0467 17.8092 69.7083C15.7471 80.2382 7.64635 86.6153 1.73926 90.003C2.24134 84.4942 3.91785 75.4537 5.32764 67.1201Z" fill="#678FB5"/>
<path d="M7.54581 54.6054C7.54537 54.6077 7.54537 54.6099 7.54537 54.6122L7.54724 54.6012C7.64786 54.062 7.74848 53.5301 7.85283 53.0075C9.97891 42.2641 15.8466 35.3593 26.8441 32.2947L58.6207 23.4336C56.1016 29.7593 50.7835 38.1379 42.63 41.8891C42.0247 42.1655 41.4044 42.4202 40.7689 42.6439L25.5557 46.4345C23.2327 47.0674 21.002 48.1569 18.9071 49.5775C12.9507 53.618 8.09646 60.3497 5.36328 67.0058C6.00823 63.1309 6.73504 58.9522 7.54351 54.6122L7.54581 54.6054Z" fill="#4877A4"/>
<path d="M7.54581 54.6054C7.54609 54.604 7.54653 54.6026 7.54724 54.6012L7.54581 54.6054Z" fill="#4877A4"/>
<path d="M7.54472 54.6136C7.54472 54.6099 7.54472 54.6062 7.54658 54.6026L7.54472 54.6136ZM7.85217 53.0088C9.97826 42.2655 15.846 35.3606 26.8435 32.2961L61.2727 22.6953C61.9062 22.4679 62.5248 22.2111 63.1286 21.9269C72.6801 17.4428 78.2037 6.45005 80 0L13.9379 18.8385C10.4143 20.1846 0.275776 23.1043 0 37.7723L1.73913 90C2.30559 87.3389 4.24472 72.3186 7.54286 54.6136L7.54658 54.6026C7.6472 54.0634 7.74783 53.5315 7.85217 53.0088Z" fill="#1B558D"/>
</svg>
