<svg width="490" height="340" viewBox="0 0 490 340" fill="none" xmlns="http://www.w3.org/2000/svg">
<rect x="1" y="1" width="488" height="338" rx="11" fill="#0F0E10"/>
<rect width="490" height="40" fill="#2D3845"/>
<rect x="20" y="10" width="80" height="20" rx="4" fill="#3C4A5A"/>
<path d="M446 20C446 22.2091 444.209 24 442 24C439.791 24 438 22.2091 438 20C438 17.7909 439.791 16 442 16C444.209 16 446 17.7909 446 20Z" fill="#3C4A5A"/>
<path d="M458 20C458 22.2091 456.209 24 454 24C451.791 24 450 22.2091 450 20C450 17.7909 451.791 16 454 16C456.209 16 458 17.7909 458 20Z" fill="#3C4A5A"/>
<path d="M466 24C468.209 24 470 22.2091 470 20C470 17.7909 468.209 16 466 16C463.791 16 462 17.7909 462 20C462 22.2091 463.791 24 466 24Z" fill="#3C4A5A"/>
<path d="M44 70C41.7909 70 40 71.7909 40 74V86C40 88.2091 41.7909 90 44 90H66C68.2091 90 70 88.2091 70 86V74C70 71.7909 68.2091 70 66 70H44Z" fill="#2D3845"/>
<path d="M44 120C41.7909 120 40 121.791 40 124V296C40 298.209 41.7909 300 44 300H446C448.209 300 450 298.209 450 296V124C450 121.791 448.209 120 446 120H44Z" fill="#2D3845"/>
<path d="M120 79C120 76.7909 121.791 75 124 75H146C148.209 75 150 76.7909 150 79V81C150 83.2091 148.209 85 146 85H124C121.791 85 120 83.2091 120 81V79Z" fill="#2D3845"/>
<path d="M164 75C161.791 75 160 76.7909 160 79V81C160 83.2091 161.791 85 164 85H186C188.209 85 190 83.2091 190 81V79C190 76.7909 188.209 75 186 75H164Z" fill="#2D3845"/>
<path d="M200 79C200 76.7909 201.791 75 204 75H226C228.209 75 230 76.7909 230 79V81C230 83.2091 228.209 85 226 85H204C201.791 85 200 83.2091 200 81V79Z" fill="#2D3845"/>
<path d="M434 70C431.791 70 430 71.7909 430 74V86C430 88.2091 431.791 90 434 90H446C448.209 90 450 88.2091 450 86V74C450 71.7909 448.209 70 446 70H434Z" fill="#2D3845"/>
<rect x="1" y="1" width="488" height="338" rx="11" stroke="#2D3845" stroke-width="2"/>
</svg>
