<svg width="1082" height="635" viewBox="0 0 1082 635" fill="none" xmlns="http://www.w3.org/2000/svg">
<path d="M297.64 548V533.9H303.48C305 533.9 306.173 534.28 307 535.04C307.827 535.787 308.24 536.84 308.24 538.2C308.24 539.573 307.827 540.64 307 541.4C306.173 542.147 305 542.52 303.48 542.52H299.72V548H297.64ZM299.72 540.86H303.18C305.207 540.86 306.22 539.973 306.22 538.2C306.22 536.44 305.207 535.56 303.18 535.56H299.72V540.86ZM314.28 548.18C313.293 548.18 312.44 547.973 311.72 547.56C311 547.147 310.44 546.567 310.04 545.82C309.653 545.06 309.46 544.16 309.46 543.12C309.46 542.08 309.653 541.187 310.04 540.44C310.44 539.68 311 539.093 311.72 538.68C312.44 538.267 313.293 538.06 314.28 538.06C315.24 538.06 316.08 538.267 316.8 538.68C317.52 539.093 318.08 539.68 318.48 540.44C318.88 541.187 319.08 542.08 319.08 543.12C319.08 544.16 318.88 545.06 318.48 545.82C318.08 546.567 317.52 547.147 316.8 547.56C316.08 547.973 315.24 548.18 314.28 548.18ZM314.28 546.62C315.107 546.62 315.773 546.32 316.28 545.72C316.787 545.12 317.04 544.253 317.04 543.12C317.04 541.987 316.787 541.127 316.28 540.54C315.773 539.94 315.107 539.64 314.28 539.64C313.44 539.64 312.767 539.94 312.26 540.54C311.753 541.127 311.5 541.987 311.5 543.12C311.5 544.253 311.753 545.12 312.26 545.72C312.767 546.32 313.44 546.62 314.28 546.62ZM325.883 548.18C324.883 548.18 324.016 547.973 323.283 547.56C322.563 547.133 322.003 546.54 321.603 545.78C321.203 545.007 321.003 544.1 321.003 543.06C321.003 541.513 321.443 540.293 322.323 539.4C323.203 538.507 324.39 538.06 325.883 538.06C326.496 538.06 327.103 538.167 327.703 538.38C328.303 538.593 328.796 538.887 329.183 539.26L328.543 540.68C328.17 540.333 327.756 540.08 327.303 539.92C326.863 539.747 326.443 539.66 326.043 539.66C325.096 539.66 324.363 539.96 323.843 540.56C323.336 541.147 323.083 541.987 323.083 543.08C323.083 544.173 323.336 545.033 323.843 545.66C324.363 546.273 325.096 546.58 326.043 546.58C326.443 546.58 326.863 546.5 327.303 546.34C327.756 546.167 328.17 545.907 328.543 545.56L329.183 547C328.796 547.36 328.296 547.647 327.683 547.86C327.083 548.073 326.483 548.18 325.883 548.18ZM333.173 548V539.86H329.733V538.24H338.653V539.86H335.193V548H333.173ZM297.52 578V568.24H306.36V578H304.34V569.86H299.54V578H297.52ZM309.395 581.6V568.24H311.375V569.9C311.655 569.34 312.082 568.893 312.655 568.56C313.229 568.227 313.889 568.06 314.635 568.06C315.502 568.06 316.255 568.267 316.895 568.68C317.549 569.093 318.049 569.68 318.395 570.44C318.755 571.187 318.935 572.08 318.935 573.12C318.935 574.16 318.755 575.06 318.395 575.82C318.049 576.58 317.549 577.167 316.895 577.58C316.255 577.98 315.502 578.18 314.635 578.18C313.915 578.18 313.269 578.027 312.695 577.72C312.135 577.4 311.709 576.967 311.415 576.42V581.6H309.395ZM314.135 576.62C314.975 576.62 315.642 576.32 316.135 575.72C316.642 575.12 316.895 574.253 316.895 573.12C316.895 571.987 316.642 571.127 316.135 570.54C315.642 569.94 314.975 569.64 314.135 569.64C313.295 569.64 312.622 569.94 312.115 570.54C311.622 571.127 311.375 571.987 311.375 573.12C311.375 574.253 311.622 575.12 312.115 575.72C312.622 576.32 313.295 576.62 314.135 576.62ZM321.407 578V568.24H323.247V575.32L328.527 568.24H330.227V578H328.387V570.94L323.107 578H321.407ZM337.582 578.18C336.076 578.18 334.882 577.707 334.002 576.76C333.136 575.813 332.702 574.42 332.702 572.58V571.1C332.702 569.153 333.116 567.673 333.942 566.66C334.769 565.633 336.002 564.907 337.642 564.48L341.082 563.58L341.722 565.2L337.782 566.2C336.742 566.467 335.956 566.953 335.422 567.66C334.889 568.367 334.622 569.24 334.622 570.28V570.36C334.929 569.72 335.376 569.213 335.962 568.84C336.562 568.467 337.276 568.28 338.102 568.28C338.929 568.28 339.656 568.48 340.282 568.88C340.922 569.267 341.422 569.827 341.782 570.56C342.142 571.293 342.322 572.16 342.322 573.16C342.322 574.187 342.122 575.08 341.722 575.84C341.336 576.587 340.782 577.167 340.062 577.58C339.356 577.98 338.529 578.18 337.582 578.18ZM337.502 576.62C338.382 576.62 339.062 576.333 339.542 575.76C340.036 575.173 340.282 574.333 340.282 573.24C340.282 572.16 340.036 571.327 339.542 570.74C339.049 570.14 338.369 569.84 337.502 569.84C336.649 569.84 335.976 570.133 335.482 570.72C334.989 571.293 334.742 572.087 334.742 573.1C334.742 574.26 334.982 575.14 335.462 575.74C335.956 576.327 336.636 576.62 337.502 576.62ZM344.805 578V568.24H346.825V571.62H349.605C350.858 571.62 351.812 571.893 352.465 572.44C353.118 572.973 353.445 573.753 353.445 574.78C353.445 575.767 353.105 576.553 352.425 577.14C351.745 577.713 350.805 578 349.605 578H344.805ZM354.765 578V568.24H356.785V578H354.765ZM346.825 576.62H349.345C350.038 576.62 350.578 576.473 350.965 576.18C351.352 575.873 351.545 575.407 351.545 574.78C351.545 574.167 351.352 573.72 350.965 573.44C350.578 573.147 350.038 573 349.345 573H346.825V576.62ZM359.405 578.26L358.725 576.66C359.311 576.42 359.771 576.093 360.105 575.68C360.438 575.253 360.678 574.667 360.825 573.92C360.971 573.16 361.045 572.18 361.045 570.98V568.24H368.485V578H366.465V569.86H362.925V571.04C362.925 572.507 362.805 573.727 362.565 574.7C362.325 575.673 361.945 576.447 361.425 577.02C360.918 577.58 360.245 577.993 359.405 578.26ZM371.524 578V568.24H373.364V575.32L378.644 568.24H380.344V578H378.504V570.94L373.224 578H371.524Z" fill="#8B95A0"/>
<path d="M672.777 548V533.9H684.697V548H682.637V535.64H674.857V548H672.777ZM692.132 548.18C691.145 548.18 690.292 547.973 689.572 547.56C688.852 547.147 688.292 546.567 687.892 545.82C687.505 545.06 687.312 544.16 687.312 543.12C687.312 542.08 687.505 541.187 687.892 540.44C688.292 539.68 688.852 539.093 689.572 538.68C690.292 538.267 691.145 538.06 692.132 538.06C693.092 538.06 693.932 538.267 694.652 538.68C695.372 539.093 695.932 539.68 696.332 540.44C696.732 541.187 696.932 542.08 696.932 543.12C696.932 544.16 696.732 545.06 696.332 545.82C695.932 546.567 695.372 547.147 694.652 547.56C693.932 547.973 693.092 548.18 692.132 548.18ZM692.132 546.62C692.958 546.62 693.625 546.32 694.132 545.72C694.638 545.12 694.892 544.253 694.892 543.12C694.892 541.987 694.638 541.127 694.132 540.54C693.625 539.94 692.958 539.64 692.132 539.64C691.292 539.64 690.618 539.94 690.112 540.54C689.605 541.127 689.352 541.987 689.352 543.12C689.352 544.253 689.605 545.12 690.112 545.72C690.618 546.32 691.292 546.62 692.132 546.62ZM699.415 548V538.24H704.395C705.595 538.24 706.468 538.467 707.015 538.92C707.575 539.36 707.855 539.987 707.855 540.8C707.855 541.307 707.708 541.753 707.415 542.14C707.135 542.513 706.748 542.787 706.255 542.96C706.868 543.107 707.341 543.387 707.675 543.8C708.008 544.213 708.175 544.707 708.175 545.28C708.175 546.12 707.861 546.787 707.235 547.28C706.608 547.76 705.715 548 704.555 548H699.415ZM701.315 542.38H704.255C704.801 542.38 705.221 542.253 705.515 542C705.821 541.747 705.975 541.4 705.975 540.96C705.975 540.507 705.821 540.16 705.515 539.92C705.221 539.68 704.801 539.56 704.255 539.56H701.315V542.38ZM701.315 546.7H704.435C705.688 546.7 706.315 546.193 706.315 545.18C706.315 544.18 705.688 543.68 704.435 543.68H701.315V546.7ZM710.528 548V538.24H712.548V541.62H715.328C716.581 541.62 717.534 541.893 718.188 542.44C718.841 542.973 719.168 543.753 719.168 544.78C719.168 545.767 718.828 546.553 718.148 547.14C717.468 547.713 716.528 548 715.328 548H710.528ZM720.488 548V538.24H722.508V548H720.488ZM712.548 546.62H715.068C715.761 546.62 716.301 546.473 716.688 546.18C717.074 545.873 717.268 545.407 717.268 544.78C717.268 544.167 717.074 543.72 716.688 543.44C716.301 543.147 715.761 543 715.068 543H712.548V546.62ZM725.547 548V538.24H727.467V546.4H731.207V538.24H733.127V546.4H736.867V538.24H738.787V548H725.547ZM746.436 548.18C744.836 548.18 743.576 547.733 742.656 546.84C741.736 545.933 741.276 544.7 741.276 543.14C741.276 542.14 741.476 541.26 741.876 540.5C742.29 539.727 742.856 539.127 743.576 538.7C744.296 538.273 745.123 538.06 746.056 538.06C747.403 538.06 748.463 538.493 749.236 539.36C750.01 540.213 750.396 541.393 750.396 542.9V543.58H743.236C743.383 545.607 744.456 546.62 746.456 546.62C747.016 546.62 747.563 546.533 748.096 546.36C748.643 546.187 749.156 545.9 749.636 545.5L750.236 546.9C749.796 547.3 749.23 547.613 748.536 547.84C747.843 548.067 747.143 548.18 746.436 548.18ZM746.136 539.48C745.296 539.48 744.63 539.74 744.136 540.26C743.643 540.78 743.343 541.473 743.236 542.34H748.696C748.656 541.433 748.416 540.733 747.976 540.24C747.536 539.733 746.923 539.48 746.136 539.48ZM752.793 548V538.24H754.813V542.18H759.673V538.24H761.693V548H759.673V543.78H754.813V548H752.793ZM764.708 548V538.24H766.548V545.32L771.828 538.24H773.528V548H771.688V540.94L766.408 548H764.708ZM781.163 548.18C779.563 548.18 778.303 547.733 777.383 546.84C776.463 545.933 776.003 544.7 776.003 543.14C776.003 542.14 776.203 541.26 776.603 540.5C777.016 539.727 777.583 539.127 778.303 538.7C779.023 538.273 779.85 538.06 780.783 538.06C782.13 538.06 783.19 538.493 783.963 539.36C784.736 540.213 785.123 541.393 785.123 542.9V543.58H777.963C778.11 545.607 779.183 546.62 781.183 546.62C781.743 546.62 782.29 546.533 782.823 546.36C783.37 546.187 783.883 545.9 784.363 545.5L784.963 546.9C784.523 547.3 783.956 547.613 783.263 547.84C782.57 548.067 781.87 548.18 781.163 548.18ZM780.863 539.48C780.023 539.48 779.356 539.74 778.863 540.26C778.37 540.78 778.07 541.473 777.963 542.34H783.423C783.383 541.433 783.143 540.733 782.703 540.24C782.263 539.733 781.65 539.48 780.863 539.48ZM639.592 578.18C638.912 578.18 638.232 578.073 637.552 577.86C636.872 577.647 636.352 577.347 635.992 576.96L636.612 575.62C636.998 575.967 637.445 576.233 637.952 576.42C638.472 576.607 638.978 576.7 639.472 576.7C640.365 576.7 641.078 576.453 641.612 575.96C642.158 575.453 642.492 574.733 642.612 573.8H637.852V572.32H642.612C642.492 571.52 642.178 570.86 641.672 570.34C641.178 569.82 640.445 569.56 639.472 569.56C638.992 569.56 638.492 569.647 637.972 569.82C637.452 569.993 636.998 570.26 636.612 570.62L635.992 569.28C636.405 568.907 636.945 568.613 637.612 568.4C638.278 568.173 638.945 568.06 639.612 568.06C641.132 568.06 642.332 568.507 643.212 569.4C644.105 570.293 644.552 571.513 644.552 573.06C644.552 574.113 644.352 575.027 643.952 575.8C643.552 576.56 642.978 577.147 642.232 577.56C641.485 577.973 640.605 578.18 639.592 578.18ZM652.652 581.6V576.52C652.145 577.627 651.278 578.18 650.052 578.18C649.345 578.18 648.718 577.973 648.172 577.56C647.638 577.147 647.218 576.56 646.912 575.8C646.618 575.04 646.472 574.147 646.472 573.12C646.472 572.08 646.618 571.187 646.912 570.44C647.218 569.68 647.638 569.093 648.172 568.68C648.718 568.267 649.345 568.06 650.052 568.06C650.665 568.06 651.192 568.207 651.632 568.5C652.072 568.793 652.412 569.2 652.652 569.72V563.9H654.672V569.7C654.912 569.18 655.252 568.78 655.692 568.5C656.132 568.207 656.652 568.06 657.252 568.06C657.958 568.06 658.578 568.267 659.112 568.68C659.658 569.093 660.078 569.68 660.372 570.44C660.678 571.187 660.832 572.08 660.832 573.12C660.832 574.147 660.678 575.04 660.372 575.8C660.078 576.56 659.665 577.147 659.132 577.56C658.598 577.973 657.972 578.18 657.252 578.18C656.052 578.18 655.192 577.633 654.672 576.54V581.6H652.652ZM650.592 576.64C651.232 576.64 651.738 576.347 652.112 575.76C652.498 575.173 652.692 574.293 652.692 573.12C652.692 571.96 652.498 571.087 652.112 570.5C651.738 569.913 651.232 569.62 650.592 569.62C649.965 569.62 649.458 569.913 649.072 570.5C648.685 571.087 648.492 571.96 648.492 573.12C648.492 574.293 648.678 575.173 649.052 575.76C649.438 576.347 649.952 576.64 650.592 576.64ZM656.712 576.64C657.352 576.64 657.858 576.347 658.232 575.76C658.618 575.173 658.812 574.293 658.812 573.12C658.812 571.96 658.618 571.087 658.232 570.5C657.858 569.913 657.352 569.62 656.712 569.62C656.072 569.62 655.565 569.913 655.192 570.5C654.818 571.087 654.632 571.96 654.632 573.12C654.632 574.293 654.818 575.173 655.192 575.76C655.565 576.347 656.072 576.64 656.712 576.64ZM668.941 581.6V576.52C668.434 577.627 667.567 578.18 666.341 578.18C665.634 578.18 665.007 577.973 664.461 577.56C663.927 577.147 663.507 576.56 663.201 575.8C662.907 575.04 662.761 574.147 662.761 573.12C662.761 572.08 662.907 571.187 663.201 570.44C663.507 569.68 663.927 569.093 664.461 568.68C665.007 568.267 665.634 568.06 666.341 568.06C666.954 568.06 667.481 568.207 667.921 568.5C668.361 568.793 668.701 569.2 668.941 569.72V563.9H670.961V569.7C671.201 569.18 671.541 568.78 671.981 568.5C672.421 568.207 672.941 568.06 673.541 568.06C674.247 568.06 674.867 568.267 675.401 568.68C675.947 569.093 676.367 569.68 676.661 570.44C676.967 571.187 677.121 572.08 677.121 573.12C677.121 574.147 676.967 575.04 676.661 575.8C676.367 576.56 675.954 577.147 675.421 577.56C674.887 577.973 674.261 578.18 673.541 578.18C672.341 578.18 671.481 577.633 670.961 576.54V581.6H668.941ZM666.881 576.64C667.521 576.64 668.027 576.347 668.401 575.76C668.787 575.173 668.981 574.293 668.981 573.12C668.981 571.96 668.787 571.087 668.401 570.5C668.027 569.913 667.521 569.62 666.881 569.62C666.254 569.62 665.747 569.913 665.361 570.5C664.974 571.087 664.781 571.96 664.781 573.12C664.781 574.293 664.967 575.173 665.341 575.76C665.727 576.347 666.241 576.64 666.881 576.64ZM673.001 576.64C673.641 576.64 674.147 576.347 674.521 575.76C674.907 575.173 675.101 574.293 675.101 573.12C675.101 571.96 674.907 571.087 674.521 570.5C674.147 569.913 673.641 569.62 673.001 569.62C672.361 569.62 671.854 569.913 671.481 570.5C671.107 571.087 670.921 571.96 670.921 573.12C670.921 574.293 671.107 575.173 671.481 575.76C671.854 576.347 672.361 576.64 673.001 576.64ZM684.21 578.18C682.61 578.18 681.35 577.733 680.43 576.84C679.51 575.933 679.05 574.7 679.05 573.14C679.05 572.14 679.25 571.26 679.65 570.5C680.063 569.727 680.63 569.127 681.35 568.7C682.07 568.273 682.897 568.06 683.83 568.06C685.177 568.06 686.237 568.493 687.01 569.36C687.783 570.213 688.17 571.393 688.17 572.9V573.58H681.01C681.157 575.607 682.23 576.62 684.23 576.62C684.79 576.62 685.337 576.533 685.87 576.36C686.417 576.187 686.93 575.9 687.41 575.5L688.01 576.9C687.57 577.3 687.003 577.613 686.31 577.84C685.617 578.067 684.917 578.18 684.21 578.18ZM683.91 569.48C683.07 569.48 682.403 569.74 681.91 570.26C681.417 570.78 681.117 571.473 681.01 572.34H686.47C686.43 571.433 686.19 570.733 685.75 570.24C685.31 569.733 684.697 569.48 683.91 569.48ZM690.567 578V568.24H692.587V572.2H694.227L697.247 568.24H699.447L696.147 572.62C696.467 572.767 696.76 572.993 697.027 573.3C697.307 573.593 697.594 574 697.887 574.52L699.907 578H697.747L696.047 575.08C695.74 574.56 695.44 574.213 695.147 574.04C694.867 573.867 694.474 573.78 693.967 573.78H692.587V578H690.567ZM703.427 578V569.86H699.987V568.24H708.907V569.86H705.447V578H703.427ZM710.528 578V568.24H712.368V575.32L717.648 568.24H719.348V578H717.508V570.94L712.228 578H710.528ZM722.383 578V568.24H727.363C728.563 568.24 729.437 568.467 729.983 568.92C730.543 569.36 730.823 569.987 730.823 570.8C730.823 571.307 730.677 571.753 730.383 572.14C730.103 572.513 729.717 572.787 729.223 572.96C729.837 573.107 730.31 573.387 730.643 573.8C730.977 574.213 731.143 574.707 731.143 575.28C731.143 576.12 730.83 576.787 730.203 577.28C729.577 577.76 728.683 578 727.523 578H722.383ZM724.283 572.38H727.223C727.77 572.38 728.19 572.253 728.483 572C728.79 571.747 728.943 571.4 728.943 570.96C728.943 570.507 728.79 570.16 728.483 569.92C728.19 569.68 727.77 569.56 727.223 569.56H724.283V572.38ZM724.283 576.7H727.403C728.657 576.7 729.283 576.193 729.283 575.18C729.283 574.18 728.657 573.68 727.403 573.68H724.283V576.7ZM733.497 578V568.24H735.517V572.18H740.377V568.24H742.397V578H740.377V573.78H735.517V578H733.497ZM749.671 578.18C748.684 578.18 747.831 577.973 747.111 577.56C746.391 577.147 745.831 576.567 745.431 575.82C745.044 575.06 744.851 574.16 744.851 573.12C744.851 572.08 745.044 571.187 745.431 570.44C745.831 569.68 746.391 569.093 747.111 568.68C747.831 568.267 748.684 568.06 749.671 568.06C750.631 568.06 751.471 568.267 752.191 568.68C752.911 569.093 753.471 569.68 753.871 570.44C754.271 571.187 754.471 572.08 754.471 573.12C754.471 574.16 754.271 575.06 753.871 575.82C753.471 576.567 752.911 577.147 752.191 577.56C751.471 577.973 750.631 578.18 749.671 578.18ZM749.671 576.62C750.497 576.62 751.164 576.32 751.671 575.72C752.177 575.12 752.431 574.253 752.431 573.12C752.431 571.987 752.177 571.127 751.671 570.54C751.164 569.94 750.497 569.64 749.671 569.64C748.831 569.64 748.157 569.94 747.651 570.54C747.144 571.127 746.891 571.987 746.891 573.12C746.891 574.253 747.144 575.12 747.651 575.72C748.157 576.32 748.831 576.62 749.671 576.62ZM761.274 578.18C760.274 578.18 759.407 577.973 758.674 577.56C757.954 577.133 757.394 576.54 756.994 575.78C756.594 575.007 756.394 574.1 756.394 573.06C756.394 571.513 756.834 570.293 757.714 569.4C758.594 568.507 759.78 568.06 761.274 568.06C761.887 568.06 762.494 568.167 763.094 568.38C763.694 568.593 764.187 568.887 764.574 569.26L763.934 570.68C763.56 570.333 763.147 570.08 762.694 569.92C762.254 569.747 761.834 569.66 761.434 569.66C760.487 569.66 759.754 569.96 759.234 570.56C758.727 571.147 758.474 571.987 758.474 573.08C758.474 574.173 758.727 575.033 759.234 575.66C759.754 576.273 760.487 576.58 761.434 576.58C761.834 576.58 762.254 576.5 762.694 576.34C763.147 576.167 763.56 575.907 763.934 575.56L764.574 577C764.187 577.36 763.687 577.647 763.074 577.86C762.474 578.073 761.874 578.18 761.274 578.18ZM768.564 578V569.86H765.124V568.24H774.044V569.86H770.584V578H768.564ZM775.665 578V568.24H777.505V575.32L782.785 568.24H784.485V578H782.645V570.94L777.365 578H775.665Z" fill="#8B95A0"/>
<path d="M592.64 58V43.9H594.72V50.04H596.98L600.94 43.9H603.24L598.94 50.38C599.5 50.5933 599.993 50.9267 600.42 51.38C600.847 51.82 601.227 52.3733 601.56 53.04L603.98 58H601.74L599.82 53.9C599.46 53.14 599.04 52.6 598.56 52.28C598.08 51.9467 597.487 51.78 596.78 51.78H594.72V58H592.64ZM608.785 58.18C608.105 58.18 607.498 58.0467 606.965 57.78C606.432 57.5133 606.005 57.1533 605.685 56.7C605.378 56.2467 605.225 55.7333 605.225 55.16C605.225 54.44 605.405 53.8733 605.765 53.46C606.138 53.0467 606.745 52.7467 607.585 52.56C608.438 52.3733 609.585 52.28 611.025 52.28H611.705V51.76C611.705 51 611.545 50.4533 611.225 50.12C610.905 49.7867 610.378 49.62 609.645 49.62C609.085 49.62 608.525 49.7067 607.965 49.88C607.405 50.04 606.832 50.3 606.245 50.66L605.625 49.24C606.132 48.88 606.765 48.5933 607.525 48.38C608.285 48.1667 609.012 48.06 609.705 48.06C611.038 48.06 612.025 48.38 612.665 49.02C613.305 49.6467 613.625 50.6333 613.625 51.98V58H611.725V56.38C611.485 56.94 611.112 57.38 610.605 57.7C610.098 58.02 609.492 58.18 608.785 58.18ZM609.185 56.74C609.905 56.74 610.505 56.4867 610.985 55.98C611.465 55.4733 611.705 54.8333 611.705 54.06V53.52H611.045C610.072 53.52 609.305 53.5667 608.745 53.66C608.198 53.7533 607.805 53.9133 607.565 54.14C607.338 54.3533 607.225 54.6533 607.225 55.04C607.225 55.5467 607.398 55.96 607.745 56.28C608.092 56.5867 608.572 56.74 609.185 56.74ZM616.622 58V48.24H618.642V52.18H623.502V48.24H625.522V58H623.502V53.78H618.642V58H616.622ZM631.676 58.18C630.996 58.18 630.389 58.0467 629.856 57.78C629.322 57.5133 628.896 57.1533 628.576 56.7C628.269 56.2467 628.116 55.7333 628.116 55.16C628.116 54.44 628.296 53.8733 628.656 53.46C629.029 53.0467 629.636 52.7467 630.476 52.56C631.329 52.3733 632.476 52.28 633.916 52.28H634.596V51.76C634.596 51 634.436 50.4533 634.116 50.12C633.796 49.7867 633.269 49.62 632.536 49.62C631.976 49.62 631.416 49.7067 630.856 49.88C630.296 50.04 629.722 50.3 629.136 50.66L628.516 49.24C629.022 48.88 629.656 48.5933 630.416 48.38C631.176 48.1667 631.902 48.06 632.596 48.06C633.929 48.06 634.916 48.38 635.556 49.02C636.196 49.6467 636.516 50.6333 636.516 51.98V58H634.616V56.38C634.376 56.94 634.002 57.38 633.496 57.7C632.989 58.02 632.382 58.18 631.676 58.18ZM632.076 56.74C632.796 56.74 633.396 56.4867 633.876 55.98C634.356 55.4733 634.596 54.8333 634.596 54.06V53.52H633.936C632.962 53.52 632.196 53.5667 631.636 53.66C631.089 53.7533 630.696 53.9133 630.456 54.14C630.229 54.3533 630.116 54.6533 630.116 55.04C630.116 55.5467 630.289 55.96 630.636 56.28C630.982 56.5867 631.462 56.74 632.076 56.74ZM639.092 58.26L638.412 56.66C638.999 56.42 639.459 56.0933 639.792 55.68C640.126 55.2533 640.366 54.6667 640.512 53.92C640.659 53.16 640.732 52.18 640.732 50.98V48.24H648.172V58H646.152V49.86H642.612V51.04C642.612 52.5067 642.492 53.7267 642.252 54.7C642.012 55.6733 641.632 56.4467 641.112 57.02C640.606 57.58 639.932 57.9933 639.092 58.26ZM651.211 58V48.24H653.231V51.62H656.011C657.265 51.62 658.218 51.8933 658.871 52.44C659.525 52.9733 659.851 53.7533 659.851 54.78C659.851 55.7667 659.511 56.5533 658.831 57.14C658.151 57.7133 657.211 58 656.011 58H651.211ZM661.171 58V48.24H663.191V58H661.171ZM653.231 56.62H655.751C656.445 56.62 656.985 56.4733 657.371 56.18C657.758 55.8733 657.951 55.4067 657.951 54.78C657.951 54.1667 657.758 53.72 657.371 53.44C656.985 53.1467 656.445 53 655.751 53H653.231V56.62ZM592.52 88V78.24H601.36V88H599.34V79.86H594.54V88H592.52ZM604.395 91.6V78.24H606.375V79.9C606.655 79.34 607.082 78.8933 607.655 78.56C608.229 78.2267 608.889 78.06 609.635 78.06C610.502 78.06 611.255 78.2667 611.895 78.68C612.549 79.0933 613.049 79.68 613.395 80.44C613.755 81.1867 613.935 82.08 613.935 83.12C613.935 84.16 613.755 85.06 613.395 85.82C613.049 86.58 612.549 87.1667 611.895 87.58C611.255 87.98 610.502 88.18 609.635 88.18C608.915 88.18 608.269 88.0267 607.695 87.72C607.135 87.4 606.709 86.9667 606.415 86.42V91.6H604.395ZM609.135 86.62C609.975 86.62 610.642 86.32 611.135 85.72C611.642 85.12 611.895 84.2533 611.895 83.12C611.895 81.9867 611.642 81.1267 611.135 80.54C610.642 79.94 609.975 79.64 609.135 79.64C608.295 79.64 607.622 79.94 607.115 80.54C606.622 81.1267 606.375 81.9867 606.375 83.12C606.375 84.2533 606.622 85.12 607.115 85.72C607.622 86.32 608.295 86.62 609.135 86.62ZM620.667 88.18C619.68 88.18 618.827 87.9733 618.107 87.56C617.387 87.1467 616.827 86.5667 616.427 85.82C616.04 85.06 615.847 84.16 615.847 83.12C615.847 82.08 616.04 81.1867 616.427 80.44C616.827 79.68 617.387 79.0933 618.107 78.68C618.827 78.2667 619.68 78.06 620.667 78.06C621.627 78.06 622.467 78.2667 623.187 78.68C623.907 79.0933 624.467 79.68 624.867 80.44C625.267 81.1867 625.467 82.08 625.467 83.12C625.467 84.16 625.267 85.06 624.867 85.82C624.467 86.5667 623.907 87.1467 623.187 87.56C622.467 87.9733 621.627 88.18 620.667 88.18ZM620.667 86.62C621.493 86.62 622.16 86.32 622.667 85.72C623.173 85.12 623.427 84.2533 623.427 83.12C623.427 81.9867 623.173 81.1267 622.667 80.54C622.16 79.94 621.493 79.64 620.667 79.64C619.827 79.64 619.153 79.94 618.647 80.54C618.14 81.1267 617.887 81.9867 617.887 83.12C617.887 84.2533 618.14 85.12 618.647 85.72C619.153 86.32 619.827 86.62 620.667 86.62ZM626.95 90.6V86.4H628.03C628.456 85.76 628.763 85.02 628.95 84.18C629.136 83.3267 629.23 82.2933 629.23 81.08V78.24H636.45V86.4H638.01V90.6H636.29V88H628.69V90.6H626.95ZM629.91 86.4H634.53V79.82H630.99V81.5C630.99 82.42 630.896 83.3133 630.71 84.18C630.523 85.0467 630.256 85.7867 629.91 86.4ZM640.02 88V78.24H645C646.2 78.24 647.073 78.4667 647.62 78.92C648.18 79.36 648.46 79.9867 648.46 80.8C648.46 81.3067 648.313 81.7533 648.02 82.14C647.74 82.5133 647.353 82.7867 646.86 82.96C647.473 83.1067 647.947 83.3867 648.28 83.8C648.613 84.2133 648.78 84.7067 648.78 85.28C648.78 86.12 648.467 86.7867 647.84 87.28C647.213 87.76 646.32 88 645.16 88H640.02ZM641.92 82.38H644.86C645.407 82.38 645.827 82.2533 646.12 82C646.427 81.7467 646.58 81.4 646.58 80.96C646.58 80.5067 646.427 80.16 646.12 79.92C645.827 79.68 645.407 79.56 644.86 79.56H641.92V82.38ZM641.92 86.7H645.04C646.293 86.7 646.92 86.1933 646.92 85.18C646.92 84.18 646.293 83.68 645.04 83.68H641.92V86.7ZM651.133 88V78.24H652.973V85.32L658.253 78.24H659.953V88H658.113V80.94L652.833 88H651.133ZM661.429 88L663.449 84.52C663.755 83.9867 664.042 83.5733 664.309 83.28C664.589 82.9733 664.895 82.7533 665.229 82.62L661.889 78.24H664.089L667.109 82.2H668.509V78.24H670.529V82.2H671.909L674.929 78.24H677.109L673.789 82.62C674.122 82.7533 674.422 82.9733 674.689 83.28C674.969 83.5867 675.262 84 675.569 84.52L677.589 88H675.429L673.729 85.08C673.422 84.56 673.122 84.2133 672.829 84.04C672.549 83.8667 672.162 83.78 671.669 83.78H670.529V88H668.509V83.78H667.369C666.862 83.78 666.462 83.8667 666.169 84.04C665.889 84.2133 665.595 84.56 665.289 85.08L663.589 88H661.429ZM683.643 88.18C682.043 88.18 680.783 87.7333 679.863 86.84C678.943 85.9333 678.483 84.7 678.483 83.14C678.483 82.14 678.683 81.26 679.083 80.5C679.497 79.7267 680.063 79.1267 680.783 78.7C681.503 78.2733 682.33 78.06 683.263 78.06C684.61 78.06 685.67 78.4933 686.443 79.36C687.217 80.2133 687.603 81.3933 687.603 82.9V83.58H680.443C680.59 85.6067 681.663 86.62 683.663 86.62C684.223 86.62 684.77 86.5333 685.303 86.36C685.85 86.1867 686.363 85.9 686.843 85.5L687.443 86.9C687.003 87.3 686.437 87.6133 685.743 87.84C685.05 88.0667 684.35 88.18 683.643 88.18ZM683.343 79.48C682.503 79.48 681.837 79.74 681.343 80.26C680.85 80.78 680.55 81.4733 680.443 82.34H685.903C685.863 81.4333 685.623 80.7333 685.183 80.24C684.743 79.7333 684.13 79.48 683.343 79.48ZM690 88V78.24H692.02V82.18H696.88V78.24H698.9V88H696.88V83.78H692.02V88H690ZM701.915 88V78.24H703.755V85.32L709.035 78.24H710.735V88H708.895V80.94L703.615 88H701.915ZM712.95 88L714.43 85.44C714.817 84.7467 715.323 84.2867 715.95 84.06C715.123 83.9267 714.49 83.62 714.05 83.14C713.61 82.6467 713.39 82.0067 713.39 81.22C713.39 80.3133 713.697 79.5933 714.31 79.06C714.923 78.5133 715.837 78.24 717.05 78.24H721.71V88H719.83V84.44H718.57C718.103 84.44 717.703 84.5667 717.37 84.82C717.037 85.06 716.763 85.36 716.55 85.72L715.25 88H712.95ZM717.47 83.06H719.83V79.62H717.47C716.737 79.62 716.197 79.7733 715.85 80.08C715.503 80.3733 715.33 80.7867 715.33 81.32C715.33 81.8667 715.503 82.2933 715.85 82.6C716.197 82.9067 716.737 83.06 717.47 83.06Z" fill="#8B95A0"/>
<path d="M817.64 313V298.9H819.72V305.04H821.98L825.94 298.9H828.24L823.94 305.38C824.5 305.593 824.993 305.927 825.42 306.38C825.847 306.82 826.227 307.373 826.56 308.04L828.98 313H826.74L824.82 308.9C824.46 308.14 824.04 307.6 823.56 307.28C823.08 306.947 822.487 306.78 821.78 306.78H819.72V313H817.64ZM834.768 313.18C833.782 313.18 832.928 312.973 832.208 312.56C831.488 312.147 830.928 311.567 830.528 310.82C830.142 310.06 829.948 309.16 829.948 308.12C829.948 307.08 830.142 306.187 830.528 305.44C830.928 304.68 831.488 304.093 832.208 303.68C832.928 303.267 833.782 303.06 834.768 303.06C835.728 303.06 836.568 303.267 837.288 303.68C838.008 304.093 838.568 304.68 838.968 305.44C839.368 306.187 839.568 307.08 839.568 308.12C839.568 309.16 839.368 310.06 838.968 310.82C838.568 311.567 838.008 312.147 837.288 312.56C836.568 312.973 835.728 313.18 834.768 313.18ZM834.768 311.62C835.595 311.62 836.262 311.32 836.768 310.72C837.275 310.12 837.528 309.253 837.528 308.12C837.528 306.987 837.275 306.127 836.768 305.54C836.262 304.94 835.595 304.64 834.768 304.64C833.928 304.64 833.255 304.94 832.748 305.54C832.242 306.127 831.988 306.987 831.988 308.12C831.988 309.253 832.242 310.12 832.748 310.72C833.255 311.32 833.928 311.62 834.768 311.62ZM842.051 313V303.24H844.071V307.18H848.931V303.24H850.951V313H848.931V308.78H844.071V313H842.051ZM853.965 313V303.24H858.945C860.145 303.24 861.019 303.467 861.565 303.92C862.125 304.36 862.405 304.987 862.405 305.8C862.405 306.307 862.259 306.753 861.965 307.14C861.685 307.513 861.299 307.787 860.805 307.96C861.419 308.107 861.892 308.387 862.225 308.8C862.559 309.213 862.725 309.707 862.725 310.28C862.725 311.12 862.412 311.787 861.785 312.28C861.159 312.76 860.265 313 859.105 313H853.965ZM855.865 307.38H858.805C859.352 307.38 859.772 307.253 860.065 307C860.372 306.747 860.525 306.4 860.525 305.96C860.525 305.507 860.372 305.16 860.065 304.92C859.772 304.68 859.352 304.56 858.805 304.56H855.865V307.38ZM855.865 311.7H858.985C860.239 311.7 860.865 311.193 860.865 310.18C860.865 309.18 860.239 308.68 858.985 308.68H855.865V311.7ZM869.679 313.18C868.079 313.18 866.819 312.733 865.899 311.84C864.979 310.933 864.519 309.7 864.519 308.14C864.519 307.14 864.719 306.26 865.119 305.5C865.532 304.727 866.099 304.127 866.819 303.7C867.539 303.273 868.365 303.06 869.299 303.06C870.645 303.06 871.705 303.493 872.479 304.36C873.252 305.213 873.639 306.393 873.639 307.9V308.58H866.479C866.625 310.607 867.699 311.62 869.699 311.62C870.259 311.62 870.805 311.533 871.339 311.36C871.885 311.187 872.399 310.9 872.879 310.5L873.479 311.9C873.039 312.3 872.472 312.613 871.779 312.84C871.085 313.067 870.385 313.18 869.679 313.18ZM869.379 304.48C868.539 304.48 867.872 304.74 867.379 305.26C866.885 305.78 866.585 306.473 866.479 307.34H871.939C871.899 306.433 871.659 305.733 871.219 305.24C870.779 304.733 870.165 304.48 869.379 304.48ZM876.056 316.6V303.24H878.036V304.9C878.316 304.34 878.742 303.893 879.316 303.56C879.889 303.227 880.549 303.06 881.296 303.06C882.162 303.06 882.916 303.267 883.556 303.68C884.209 304.093 884.709 304.68 885.056 305.44C885.416 306.187 885.596 307.08 885.596 308.12C885.596 309.16 885.416 310.06 885.056 310.82C884.709 311.58 884.209 312.167 883.556 312.58C882.916 312.98 882.162 313.18 881.296 313.18C880.576 313.18 879.929 313.027 879.356 312.72C878.796 312.4 878.369 311.967 878.076 311.42V316.6H876.056ZM880.796 311.62C881.636 311.62 882.302 311.32 882.796 310.72C883.302 310.12 883.556 309.253 883.556 308.12C883.556 306.987 883.302 306.127 882.796 305.54C882.302 304.94 881.636 304.64 880.796 304.64C879.956 304.64 879.282 304.94 878.776 305.54C878.282 306.127 878.036 306.987 878.036 308.12C878.036 309.253 878.282 310.12 878.776 310.72C879.282 311.32 879.956 311.62 880.796 311.62ZM892.387 313.18C891.387 313.18 890.52 312.973 889.787 312.56C889.067 312.133 888.507 311.54 888.107 310.78C887.707 310.007 887.507 309.1 887.507 308.06C887.507 306.513 887.947 305.293 888.827 304.4C889.707 303.507 890.894 303.06 892.387 303.06C893 303.06 893.607 303.167 894.207 303.38C894.807 303.593 895.3 303.887 895.687 304.26L895.047 305.68C894.674 305.333 894.26 305.08 893.807 304.92C893.367 304.747 892.947 304.66 892.547 304.66C891.6 304.66 890.867 304.96 890.347 305.56C889.84 306.147 889.587 306.987 889.587 308.08C889.587 309.173 889.84 310.033 890.347 310.66C890.867 311.273 891.6 311.58 892.547 311.58C892.947 311.58 893.367 311.5 893.807 311.34C894.26 311.167 894.674 310.907 895.047 310.56L895.687 312C895.3 312.36 894.8 312.647 894.187 312.86C893.587 313.073 892.987 313.18 892.387 313.18ZM897.637 313V303.24H899.477V310.32L904.757 303.24H906.457V313H904.617V305.94L899.337 313H897.637ZM908.673 313L910.153 310.44C910.539 309.747 911.046 309.287 911.673 309.06C910.846 308.927 910.213 308.62 909.773 308.14C909.333 307.647 909.113 307.007 909.113 306.22C909.113 305.313 909.419 304.593 910.033 304.06C910.646 303.513 911.559 303.24 912.773 303.24H917.433V313H915.553V309.44H914.293C913.826 309.44 913.426 309.567 913.093 309.82C912.759 310.06 912.486 310.36 912.273 310.72L910.973 313H908.673ZM913.193 308.06H915.553V304.62H913.193C912.459 304.62 911.919 304.773 911.573 305.08C911.226 305.373 911.053 305.787 911.053 306.32C911.053 306.867 911.226 307.293 911.573 307.6C911.919 307.907 912.459 308.06 913.193 308.06Z" fill="#8B95A0"/>
<path d="M541 0.226497L535.226 6L541 11.7735L546.774 6L541 0.226497ZM540.293 126.707C540.683 127.098 541.317 127.098 541.707 126.707L548.071 120.344C548.462 119.953 548.462 119.32 548.071 118.929C547.681 118.539 547.047 118.539 546.657 118.929L541 124.586L535.343 118.929C534.953 118.539 534.319 118.539 533.929 118.929C533.538 119.32 533.538 119.953 533.929 120.344L540.293 126.707ZM540 6V8.00001H542V6H540ZM540 12V16H542V12H540ZM540 20V24.0001H542V20H540ZM540 28.0001V32.0001H542V28.0001H540ZM540 36.0001V40.0001H542V36.0001H540ZM540 44.0001V48.0001H542V44.0001H540ZM540 52.0001V56.0002H542V52.0001H540ZM540 60.0002V64.0002H542V60.0002H540ZM540 68.0002V72.0002H542V68.0002H540ZM540 76.0002V80.0002H542V76.0002H540ZM540 84.0003V88.0003H542V84.0003H540ZM540 92.0003V96.0003H542V92.0003H540ZM540 100V104H542V100H540ZM540 108V112H542V108H540ZM540 116V120H542V116H540ZM540 124V126H542V124H540Z" fill="#2D3845"/>
<path d="M1081.77 206L1076 200.226L1070.23 206L1076 211.774L1081.77 206ZM795.293 205.293C794.902 205.683 794.902 206.317 795.293 206.707L801.657 213.071C802.047 213.462 802.681 213.462 803.071 213.071C803.462 212.681 803.462 212.047 803.071 211.657L797.414 206L803.071 200.343C803.462 199.953 803.462 199.319 803.071 198.929C802.681 198.538 802.047 198.538 801.657 198.929L795.293 205.293ZM1076 205L1074 205L1074 207L1076 207V205ZM1070 205L1066 205L1066 207L1070 207L1070 205ZM1062 205L1058 205L1058 207L1062 207L1062 205ZM1054 205L1050 205L1050 207L1054 207L1054 205ZM1046 205L1042 205L1042 207L1046 207L1046 205ZM1038 205L1034 205L1034 207L1038 207L1038 205ZM1030 205L1026 205L1026 207L1030 207L1030 205ZM1022 205L1018 205L1018 207L1022 207L1022 205ZM1014 205L1010 205L1010 207L1014 207L1014 205ZM1006 205L1002 205L1002 207L1006 207L1006 205ZM998 205L994 205L994 207L998 207L998 205ZM990 205L986 205L986 207L990 207L990 205ZM982 205L978 205L978 207L982 207L982 205ZM974 205L970 205L970 207L974 207L974 205ZM966 205L962 205L962 207L966 207L966 205ZM958 205L954 205L954 207L958 207L958 205ZM950 205L946 205L946 207L950 207L950 205ZM942 205L938 205L938 207L942 207L942 205ZM934 205L930 205L930 207L934 207L934 205ZM926 205L922 205L922 207L926 207L926 205ZM918 205L914 205L914 207L918 207L918 205ZM910 205L906 205L906 207L910 207L910 205ZM902 205L898 205L898 207L902 207L902 205ZM894 205L890 205L890 207L894 207L894 205ZM886 205L882 205L882 207L886 207L886 205ZM878 205L874 205L874 207L878 207L878 205ZM870 205L866 205L866 207L870 207L870 205ZM862 205L858 205L858 207L862 207L862 205ZM854 205L850 205L850 207L854 207L854 205ZM846 205L842 205L842 207L846 207L846 205ZM838 205L834 205L834 207L838 207L838 205ZM830 205L826 205L826 207L830 207L830 205ZM822 205L818 205L818 207L822 207L822 205ZM814 205L810 205L810 207L814 207L814 205ZM806 205L802 205L802 207L806 207L806 205ZM798 205L796 205L796 207L798 207L798 205Z" fill="#2D3845"/>
<path d="M0.226497 206L6 200.226L11.7735 206L6 211.774L0.226497 206ZM286.707 205.293C287.098 205.683 287.098 206.317 286.707 206.707L280.344 213.071C279.953 213.462 279.32 213.462 278.929 213.071C278.539 212.681 278.539 212.047 278.929 211.657L284.586 206L278.929 200.343C278.539 199.953 278.539 199.319 278.929 198.929C279.32 198.538 279.953 198.538 280.344 198.929L286.707 205.293ZM6 205L8 205L8 207L6 207V205ZM12 205L16 205L16 207L12 207L12 205ZM20 205L24 205L24 207L20 207L20 205ZM28 205L32 205L32 207L28 207L28 205ZM36 205L40 205L40 207L36 207L36 205ZM44.0001 205L48.0001 205L48.0001 207L44.0001 207L44.0001 205ZM52.0001 205L56.0001 205L56.0001 207L52.0001 207L52.0001 205ZM60.0001 205L64.0001 205L64.0001 207L60.0001 207L60.0001 205ZM68.0001 205L72.0001 205L72.0001 207L68.0001 207L68.0001 205ZM76.0001 205L80.0001 205L80.0001 207L76.0001 207L76.0001 205ZM84.0001 205L88.0001 205L88.0001 207L84.0001 207L84.0001 205ZM92.0001 205L96.0001 205L96.0001 207L92.0001 207L92.0001 205ZM100 205L104 205L104 207L100 207L100 205ZM108 205L112 205L112 207L108 207L108 205ZM116 205L120 205L120 207L116 207L116 205ZM124 205L128 205L128 207L124 207L124 205ZM132 205L136 205L136 207L132 207L132 205ZM140 205L144 205L144 207L140 207L140 205ZM148 205L152 205L152 207L148 207L148 205ZM156 205L160 205L160 207L156 207L156 205ZM164 205L168 205L168 207L164 207L164 205ZM172 205L176 205L176 207L172 207L172 205ZM180 205L184 205L184 207L180 207L180 205ZM188 205L192 205L192 207L188 207L188 205ZM196 205L200 205L200 207L196 207L196 205ZM204 205L208 205L208 207L204 207L204 205ZM212 205L216 205L216 207L212 207L212 205ZM220 205L224 205L224 207L220 207L220 205ZM228 205L232 205L232 207L228 207L228 205ZM236 205L240 205L240 207L236 207L236 205ZM244 205L248 205L248 207L244 207L244 205ZM252 205L256 205L256 207L252 207L252 205ZM260 205L264 205L264 207L260 207L260 205ZM268 205L272 205L272 207L268 207L268 205ZM276 205L280 205L280 207L276 207L276 205ZM284 205L286 205L286 207L284 207L284 205Z" fill="#2D3845"/>
<path d="M275.293 627.707C274.902 627.317 274.902 626.683 275.293 626.293L281.657 619.929C282.047 619.538 282.681 619.538 283.071 619.929C283.462 620.319 283.462 620.953 283.071 621.343L277.414 627L283.071 632.657C283.462 633.047 283.462 633.681 283.071 634.071C282.681 634.462 282.047 634.462 281.657 634.071L275.293 627.707ZM806.707 626.293C807.098 626.683 807.098 627.317 806.707 627.707L800.343 634.071C799.953 634.462 799.319 634.462 798.929 634.071C798.538 633.681 798.538 633.047 798.929 632.657L804.586 627L798.929 621.343C798.538 620.953 798.538 620.319 798.929 619.929C799.319 619.538 799.953 619.538 800.343 619.929L806.707 626.293ZM276 626L278.008 626L278.008 628L276 628V626ZM282.023 626L286.038 626L286.038 628L282.023 628L282.023 626ZM290.053 626L294.068 626L294.068 628L290.053 628L290.053 626ZM298.083 626L302.098 626L302.098 628L298.083 628L298.083 626ZM306.114 626L310.129 626L310.129 628L306.114 628L306.114 626ZM314.144 626L318.159 626L318.159 628L314.144 628L314.144 626ZM322.174 626L326.189 626L326.189 628L322.174 628L322.174 626ZM330.205 626L334.22 626L334.22 628L330.205 628L330.205 626ZM338.235 626L342.25 626L342.25 628L338.235 628L338.235 626ZM346.265 626L350.28 626L350.28 628L346.265 628L346.265 626ZM354.295 626L358.311 626L358.311 628L354.295 628L354.295 626ZM362.326 626L366.341 626L366.341 628L362.326 628L362.326 626ZM370.356 626L374.371 626L374.371 628L370.356 628L370.356 626ZM378.386 626L382.402 626L382.402 628L378.386 628L378.386 626ZM386.417 626L390.432 626L390.432 628L386.417 628L386.417 626ZM394.447 626L398.462 626L398.462 628L394.447 628L394.447 626ZM402.477 626L406.492 626L406.492 628L402.477 628L402.477 626ZM410.508 626L414.523 626L414.523 628L410.508 628L410.508 626ZM418.538 626L422.553 626L422.553 628L418.538 628L418.538 626ZM426.568 626L430.583 626L430.583 628L426.568 628L426.568 626ZM434.598 626L438.614 626L438.614 628L434.598 628L434.598 626ZM442.629 626L446.644 626L446.644 628L442.629 628L442.629 626ZM450.659 626L454.674 626L454.674 628L450.659 628L450.659 626ZM458.689 626L462.705 626L462.705 628L458.689 628L458.689 626ZM466.72 626L470.735 626L470.735 628L466.72 628L466.72 626ZM474.75 626L478.765 626L478.765 628L474.75 628L474.75 626ZM482.78 626L486.795 626L486.795 628L482.78 628L482.78 626ZM490.811 626L494.826 626L494.826 628L490.811 628L490.811 626ZM498.841 626L502.856 626L502.856 628L498.841 628L498.841 626ZM506.871 626L510.886 626L510.886 628L506.871 628L506.871 626ZM514.902 626L518.917 626L518.917 628L514.902 628L514.902 626ZM522.932 626L526.947 626L526.947 628L522.932 628L522.932 626ZM530.962 626L534.977 626L534.977 628L530.962 628L530.962 626ZM538.992 626L543.008 626L543.008 628L538.992 628L538.992 626ZM547.023 626L551.038 626L551.038 628L547.023 628L547.023 626ZM555.053 626L559.068 626L559.068 628L555.053 628L555.053 626ZM563.083 626L567.098 626L567.098 628L563.083 628L563.083 626ZM571.114 626L575.129 626L575.129 628L571.114 628L571.114 626ZM579.144 626L583.159 626L583.159 628L579.144 628L579.144 626ZM587.174 626L591.189 626L591.189 628L587.174 628L587.174 626ZM595.204 626L599.219 626L599.219 628L595.204 628L595.204 626ZM603.235 626L607.25 626L607.25 628L603.235 628L603.235 626ZM611.265 626L615.28 626L615.28 628L611.265 628L611.265 626ZM619.295 626L623.31 626L623.31 628L619.295 628L619.295 626ZM627.325 626L631.341 626L631.341 628L627.325 628L627.325 626ZM635.356 626L639.371 626L639.371 628L635.356 628L635.356 626ZM643.386 626L647.401 626L647.401 628L643.386 628L643.386 626ZM651.416 626L655.431 626L655.431 628L651.416 628L651.416 626ZM659.447 626L663.462 626L663.462 628L659.447 628L659.447 626ZM667.477 626L671.492 626L671.492 628L667.477 628L667.477 626ZM675.507 626L679.522 626L679.522 628L675.507 628L675.507 626ZM683.537 626L687.552 626L687.552 628L683.537 628L683.537 626ZM691.568 626L695.583 626L695.583 628L691.568 628L691.568 626ZM699.598 626L703.613 626L703.613 628L699.598 628L699.598 626ZM707.628 626L711.643 626L711.643 628L707.628 628L707.628 626ZM715.658 626L719.674 626L719.674 628L715.658 628L715.658 626ZM723.689 626L727.704 626L727.704 628L723.689 628L723.689 626ZM731.719 626L735.734 626L735.734 628L731.719 628L731.719 626ZM739.749 626L743.764 626L743.764 628L739.749 628L739.749 626ZM747.78 626L751.795 626L751.795 628L747.78 628L747.78 626ZM755.81 626L759.825 626L759.825 628L755.81 628L755.81 626ZM763.84 626L767.855 626L767.855 628L763.84 628L763.84 626ZM771.87 626L775.885 626L775.885 628L771.87 628L771.87 626ZM779.901 626L783.916 626L783.916 628L779.901 628L779.901 626ZM787.931 626L791.946 626L791.946 628L787.931 628L787.931 626ZM795.961 626L799.976 626L799.976 628L795.961 628L795.961 626ZM803.991 626L806 626L806 628L803.991 628L803.991 626Z" fill="#2D3845"/>
<path d="M892.38 45.239L884.239 44.6196L883.62 52.761L891.761 53.3804L892.38 45.239ZM788.003 133.924C787.961 134.475 788.373 134.955 788.924 134.997L797.898 135.68C798.449 135.722 798.929 135.309 798.971 134.759C799.013 134.208 798.601 133.728 798.05 133.686L790.073 133.079L790.68 125.102C790.722 124.551 790.309 124.071 789.759 124.029C789.208 123.987 788.728 124.399 788.686 124.95L788.003 133.924ZM789.651 134.759L791.198 133.431L789.895 131.913L788.349 133.241L789.651 134.759ZM794.292 130.774L797.386 128.118L796.083 126.601L792.989 129.257L794.292 130.774ZM800.48 125.462L803.573 122.806L802.27 121.288L799.177 123.944L800.48 125.462ZM806.667 120.149L809.761 117.493L808.458 115.976L805.364 118.632L806.667 120.149ZM812.855 114.837L815.948 112.181L814.645 110.663L811.552 113.319L812.855 114.837ZM819.042 109.524L822.136 106.868L820.833 105.351L817.739 108.007L819.042 109.524ZM825.23 104.212L828.323 101.556L827.02 100.038L823.927 102.694L825.23 104.212ZM831.417 98.8993L834.511 96.2431L833.208 94.7257L830.114 97.3819L831.417 98.8993ZM837.605 93.5868L840.698 90.9306L839.395 89.4132L836.302 92.0694L837.605 93.5868ZM843.792 88.2743L846.886 85.6181L845.583 84.1007L842.489 86.7569L843.792 88.2743ZM849.98 82.9618L853.073 80.3056L851.77 78.7882L848.677 81.4444L849.98 82.9618ZM856.167 77.6493L859.261 74.9931L857.958 73.4757L854.864 76.1319L856.167 77.6493ZM862.355 72.3368L865.448 69.6806L864.145 68.1632L861.052 70.8194L862.355 72.3368ZM868.542 67.0243L871.636 64.3681L870.333 62.8507L867.239 65.5069L868.542 67.0243ZM874.73 61.7119L877.823 59.0556L876.52 57.5382L873.427 60.1944L874.73 61.7119ZM880.917 56.3994L884.011 53.7431L882.708 52.2257L879.614 54.8819L880.917 56.3994ZM887.105 51.0869L888.651 49.7587L887.349 48.2413L885.802 49.5694L887.105 51.0869Z" fill="#2D3845"/>
<path d="M189.62 45.239L197.761 44.6196L198.38 52.761L190.239 53.3804L189.62 45.239ZM293.997 133.924C294.039 134.475 293.627 134.955 293.076 134.997L284.102 135.68C283.551 135.722 283.071 135.309 283.029 134.759C282.987 134.208 283.399 133.728 283.95 133.686L291.927 133.079L291.32 125.102C291.278 124.551 291.691 124.071 292.241 124.029C292.792 123.987 293.272 124.399 293.314 124.95L293.997 133.924ZM292.349 134.759L290.802 133.431L292.105 131.913L293.651 133.241L292.349 134.759ZM287.708 130.774L284.614 128.118L285.917 126.601L289.011 129.257L287.708 130.774ZM281.52 125.462L278.427 122.806L279.73 121.288L282.823 123.944L281.52 125.462ZM275.333 120.149L272.239 117.493L273.542 115.976L276.636 118.632L275.333 120.149ZM269.145 114.837L266.052 112.181L267.355 110.663L270.448 113.319L269.145 114.837ZM262.958 109.524L259.864 106.868L261.167 105.351L264.261 108.007L262.958 109.524ZM256.77 104.212L253.677 101.556L254.98 100.038L258.073 102.694L256.77 104.212ZM250.583 98.8993L247.489 96.2431L248.792 94.7257L251.886 97.3819L250.583 98.8993ZM244.395 93.5868L241.302 90.9306L242.605 89.4132L245.698 92.0694L244.395 93.5868ZM238.208 88.2743L235.114 85.6181L236.417 84.1007L239.511 86.7569L238.208 88.2743ZM232.02 82.9618L228.927 80.3056L230.23 78.7882L233.323 81.4444L232.02 82.9618ZM225.833 77.6493L222.739 74.9931L224.042 73.4757L227.136 76.1319L225.833 77.6493ZM219.645 72.3368L216.552 69.6806L217.855 68.1632L220.948 70.8194L219.645 72.3368ZM213.458 67.0243L210.364 64.3681L211.667 62.8507L214.761 65.5069L213.458 67.0243ZM207.27 61.7119L204.177 59.0556L205.48 57.5382L208.573 60.1944L207.27 61.7119ZM201.083 56.3994L197.989 53.7431L199.292 52.2257L202.386 54.8819L201.083 56.3994ZM194.895 51.0869L193.349 49.7587L194.651 48.2413L196.198 49.5694L194.895 51.0869Z" fill="#2D3845"/>
<path d="M795.293 416.707C794.902 416.317 794.902 415.683 795.293 415.293L801.657 408.929C802.047 408.538 802.681 408.538 803.071 408.929C803.462 409.319 803.462 409.953 803.071 410.343L797.414 416L803.071 421.657C803.462 422.047 803.462 422.681 803.071 423.071C802.681 423.462 802.047 423.462 801.657 423.071L795.293 416.707ZM931.212 496.203C930.824 496.596 930.191 496.6 929.798 496.212L923.394 489.888C923.001 489.5 922.997 488.867 923.385 488.474C923.773 488.081 924.406 488.077 924.799 488.465L930.491 494.086L936.113 488.393C936.501 488.001 937.134 487.997 937.527 488.385C937.92 488.773 937.924 489.406 937.536 489.799L931.212 496.203ZM930.038 421.962L929.038 421.969L930.038 421.962ZM796 415L798.001 415L798.001 417L796 417L796 415ZM802.002 415L806.003 415L806.003 417L802.002 417L802.002 415ZM810.004 415L814.005 415L814.005 417L810.004 417L810.004 415ZM818.007 415L822.008 415L822.008 417L818.007 417L818.007 415ZM826.009 415L830.01 415L830.01 417L826.009 417L826.009 415ZM834.011 415L838.012 415L838.012 417L834.011 417L834.011 415ZM842.014 415L846.015 415L846.015 417L842.014 417L842.014 415ZM850.016 415L854.017 415L854.017 417L850.016 417L850.016 415ZM858.018 415L862.02 415L862.02 417L858.018 417L858.018 415ZM866.021 415L870.022 415L870.022 417L866.021 417L866.021 415ZM874.023 415L878.024 415L878.024 417L874.023 417L874.023 415ZM882.026 415L886.027 415L886.027 417L882.026 417L882.026 415ZM890.028 415L894.029 415L894.029 417L890.028 417L890.028 415ZM898.03 415L902.031 415L902.031 417L898.03 417L898.03 415ZM906.033 415L910.034 415L910.034 417L906.033 417L906.033 415ZM914.035 415L918.036 415L918.036 417L914.035 417L914.035 415ZM922.037 415L924.038 415L924.038 417L922.037 417L922.037 415ZM924.038 415C924.981 415 925.883 415.187 926.708 415.527L925.944 417.376C925.358 417.134 924.715 417 924.038 417L924.038 415ZM930.494 419.29C930.839 420.112 931.032 421.013 931.038 421.956L929.038 421.969C929.034 421.292 928.896 420.649 928.65 420.065L930.494 419.29ZM931.038 421.956L931.051 423.999L929.051 424.011L929.038 421.969L931.038 421.956ZM931.076 428.084L931.102 432.17L929.102 432.182L929.076 428.097L931.076 428.084ZM931.128 436.255L931.153 440.34L929.154 440.353L929.128 436.268L931.128 436.255ZM931.179 444.426L931.205 448.511L929.205 448.524L929.179 444.438L931.179 444.426ZM931.231 452.597L931.256 456.682L929.256 456.695L929.231 452.609L931.231 452.597ZM931.282 460.768L931.308 464.853L929.308 464.866L929.282 460.78L931.282 460.768ZM931.333 468.938L931.359 473.024L929.359 473.036L929.333 468.951L931.333 468.938ZM931.385 477.109L931.41 481.195L929.41 481.207L929.385 477.122L931.385 477.109ZM931.436 485.28L931.462 489.366L929.462 489.378L929.436 485.293L931.436 485.28ZM931.488 493.451L931.5 495.494L929.5 495.506L929.488 493.464L931.488 493.451Z" fill="#2D3845"/>
<path d="M286.207 416.707C286.598 416.317 286.598 415.683 286.207 415.293L279.844 408.929C279.453 408.538 278.82 408.538 278.429 408.929C278.039 409.319 278.039 409.953 278.429 410.343L284.086 416L278.429 421.657C278.039 422.047 278.039 422.681 278.429 423.071C278.82 423.462 279.453 423.462 279.844 423.071L286.207 416.707ZM150.288 496.203C150.677 496.596 151.31 496.6 151.703 496.212L158.107 489.888C158.499 489.5 158.503 488.867 158.115 488.474C157.727 488.081 157.094 488.077 156.701 488.465L151.009 494.086L145.388 488.393C145 488.001 144.367 487.997 143.974 488.385C143.581 488.773 143.577 489.406 143.965 489.799L150.288 496.203ZM151.462 421.962L152.462 421.969L151.462 421.962ZM285.5 415L283.5 415L283.5 417L285.5 417L285.5 415ZM279.499 415L275.497 415L275.497 417L279.499 417L279.499 415ZM271.496 415L267.495 415L267.495 417L271.496 417L271.496 415ZM263.494 415L259.493 415L259.493 417L263.494 417L263.494 415ZM255.491 415L251.49 415L251.49 417L255.491 417L255.491 415ZM247.489 415L243.488 415L243.488 417L247.489 417L247.489 415ZM239.487 415L235.486 415L235.486 417L239.487 417L239.487 415ZM231.484 415L227.483 415L227.483 417L231.484 417L231.484 415ZM223.482 415L219.481 415L219.481 417L223.482 417L223.482 415ZM215.48 415L211.478 415L211.478 417L215.48 417L215.48 415ZM207.477 415L203.476 415L203.476 417L207.477 417L207.477 415ZM199.475 415L195.474 415L195.474 417L199.475 417L199.475 415ZM191.472 415L187.471 415L187.471 417L191.472 417L191.472 415ZM183.47 415L179.469 415L179.469 417L183.47 417L183.47 415ZM175.468 415L171.467 415L171.467 417L175.468 417L175.468 415ZM167.465 415L163.464 415L163.464 417L167.465 417L167.465 415ZM159.463 415L157.462 415L157.462 417L159.463 417L159.463 415ZM157.462 415C156.519 415 155.617 415.187 154.793 415.527L155.556 417.376C156.142 417.134 156.786 417 157.462 417L157.462 415ZM151.007 419.29C150.661 420.112 150.468 421.013 150.463 421.956L152.462 421.969C152.467 421.292 152.605 420.649 152.851 420.065L151.007 419.29ZM150.463 421.956L150.45 423.999L152.45 424.011L152.462 421.969L150.463 421.956ZM150.424 428.084L150.398 432.17L152.398 432.182L152.424 428.097L150.424 428.084ZM150.373 436.255L150.347 440.34L152.347 440.353L152.373 436.268L150.373 436.255ZM150.321 444.426L150.296 448.511L152.295 448.524L152.321 444.438L150.321 444.426ZM150.27 452.597L150.244 456.682L152.244 456.695L152.27 452.609L150.27 452.597ZM150.218 460.768L150.193 464.853L152.193 464.866L152.218 460.78L150.218 460.768ZM150.167 468.938L150.141 473.024L152.141 473.036L152.167 468.951L150.167 468.938ZM150.116 477.109L150.09 481.195L152.09 481.207L152.116 477.122L150.116 477.109ZM150.064 485.28L150.039 489.366L152.039 489.378L152.064 485.293L150.064 485.28ZM150.013 493.451L150 495.494L152 495.506L152.013 493.464L150.013 493.451Z" fill="#2D3845"/>
</svg>
